<?xml version="1.0" encoding="UTF-8"?>
<svg xmlns="http://www.w3.org/2000/svg" xmlns:xlink="http://www.w3.org/1999/xlink" viewBox="0 0 300 271.25">
  <defs>
    <style>
      .cls-1, .cls-2 {
        fill: #fff;
      }

      .cls-1, .cls-3, .cls-4, .cls-5, .cls-6, .cls-7 {
        stroke-miterlimit: 10;
      }

      .cls-1, .cls-4 {
        stroke: #fff;
      }

      .cls-1, .cls-7 {
        stroke-width: 5px;
      }

      .cls-8, .cls-3 {
        fill: #231f20;
      }

      .cls-3 {
        stroke-width: 3px;
      }

      .cls-3, .cls-5, .cls-7 {
        stroke: #231f20;
      }

      .cls-4 {
        stroke-width: .5px;
      }

      .cls-4, .cls-6 {
        fill: none;
      }

      .cls-9 {
        fill: #808285;
      }

      .cls-5 {
        fill: url(#radial-gradient);
        stroke-width: 8px;
      }

      .cls-6 {
        stroke: #be1e2d;
        stroke-width: 4px;
      }

      .cls-7 {
        fill: #3c2415;
      }

      .cls-10 {
        fill: #be1e2d;
      }

      .cls-11 {
        fill: #f9cc10;
      }

      .cls-12 {
        fill: #6f5900;
      }

      .cls-13 {
        fill: #f1ad14;
      }
    </style>
    <radialGradient id="radial-gradient" cx="131" cy="135.81" fx="131" fy="144.82" r="121.45" gradientTransform="translate(-4.65 -4.3) scale(1.05 1.02)" gradientUnits="userSpaceOnUse">
      <stop offset="0" stop-color="#ee3224"/>
      <stop offset=".46" stop-color="#ec3123"/>
      <stop offset=".63" stop-color="#e52f23"/>
      <stop offset=".74" stop-color="#d92c22"/>
      <stop offset=".84" stop-color="#c82821"/>
      <stop offset=".92" stop-color="#b2221f"/>
      <stop offset=".99" stop-color="#981b1d"/>
      <stop offset="1" stop-color="#941a1d"/>
    </radialGradient>
  </defs>
  <g id="border">
    <circle class="cls-5" cx="133.42" cy="134.45" r="126"/>
  </g>
  <g id="dawg_color">
    <path class="cls-13" d="M50.87,104.07c11.63-1.32,20.31-7.9,25.12-18.64.76-1.69,1.42-3.42,2.17-5.12,1.1-2.5-.72,1.42.48-1.01.44-.9,1.28-1.98,1.56-2.92.49-1.67.38.12-.49.23-1.65.21,2.03-.09.23-.19-1.59-.09-1.81.46-3.81-.02-1.82-.43-3.77-1.85-1.06.22,2.16,1.65,3.51,2.63,6.32,3.52,6.26,1.98,13.18.85,18.5-3.1.45-.33,2.05-1.29.58-.65.91-.39,2.07-.61,3.05-.74-1.65.23.09.12.77.11,1.18,0,2.35-.05,3.53-.06,10.31-.07,21.03.66,30.78,2.24s18.94-3.89,18.99-14.46c.01-3.09-.49.5-.79,1.41-.68.74-.47.55.61-.56-.48.61-1.1,1.04-1.84,1.26l-11.56-1.51c8.93,4.77,17.68,9.85,26.25,15.23,2.52-9.32,5.05-18.63,7.57-27.95-5.9-.15-11.75-1.49-17.66-.84-7.13.79-14.01,3.2-19.22,8.34-11.39,11.25-6.19,26.42-2.94,39.93,1.44,5.98,2.95,11.95,4.32,17.95.22.97.7,2.97.6,2.99-.55.12,1.48-3.82,1.49-3.85l.73-.48c-.63.42-1.27.83-1.92,1.2-1.1.67-2.23,1.3-3.32,1.98-5.19,3.26-10.04,7.18-14.38,11.51-1.5,1.49-3.73,3.82-4.81,4.77.52-.46-1.93,1.7-.36.47-1.57,1.23-1.52-.23.57.28l-3.99,29.46c15.17-.23,36.63-.93,37.41-20.98.32-8.39-7.15-14.61-15-15-11.27-.56-20.75,4.84-30.71,9.21,2.16-.95-.06.02-.45.15-1.14.37-2.25.77-3.4,1.07-.83.22-3.68.38-.87.28-.94.03-1.91.09-2.84-.02,2.47.3-.14-.14-.46-.35,2.01,1.28-.72-.43-1.21-.72-2.09-1.24,1.82,2.17-1.2-.91-.35-.36-2.91-3.52-1.6-1.64-2.66-3.82-3.35-6.37-4.4-11.61-.21-1.07-.43-2.17-.56-3.25.25,2.05,0-.67,0-.89,0,0,.51-4.2.06-2.83-.75,2.28.94-.69.45-.13,2.21-2.52,6.16-6.56,9.42-9.34.35-.3,2.98-2.31,1.32-1.1.85-.62,1.72-1.21,2.6-1.77s1.77-1.09,2.68-1.59c.24-.13,4.25-1.88,1.99-1.04,1.19-.44,2.4-.76,3.63-1.08,2.49-.66-3.23-.15,1.25-.24.52-.01,2.88.16,3.08.01-.14.1-1.14-.1-1.31-.34l-2.34-2.38c.78,1.4.96,1.68.53.82-1.04-1.5.66,3.17.12-.1.15.92.15,2,.15,2.92,0,.5-.66,4.52-.06,1.82-.27,1.2-.58,2.36-.96,3.53-.76,2.31,1.73-2.49-.52,1.11-.52.83-.97,1.68-1.52,2.5,1.21-1.81-.05.06-.39.39l-1.03,1.04c-1.25,1.11-1.45,1.31-.6.58.09.06,3.7-.9,4.6-1.49.24-.16,2.88,1.75-.25-.18-.43-.27-3.4-2.68-1.44-.84-.67-.63-1.3-1.31-1.98-1.93-3.03-2.81.66,1.19-.72-.81-1.24-1.79-2.24-3.67-3.28-5.58-1.36-2.49-.56-1.08-.28-.41-.48-1.12-.87-2.27-1.27-3.42s-.76-2.29-1.09-3.45l-.38-1.38c-.51-1.89-.61-2.34-.31-1.34-.13.06-2.38,4.99-2.51,5.29-1.38,3.23-.83-1.67.13,0l-1.32.16c1.57.07,1.81.03.72-.11-2.32-.18,2.94,1.03-.3-.31.78.32,1.74.88,2.38,1.38-2.08-1.62.06.28.13.53-.57-2.09.1.46.47,1.19.47.94.44.87-.1-.21.24.7.44,1.41.59,2.13.66,2.42.15-3.22.21,1.12.02,1.72.13,3.48-.15,5.19-.16.97-1.32,4.96-1.97,6.9-1.76,5.28-3.72,9.72-6.93,15.07-2.98,4.98-5.7,7.97-10.24,12.26-2.09,1.98-4.26,3.87-6.45,5.73-.99.85-2.52,1.73-3.3,2.78-.9.74-.88.74.06,0,3.36-.95,6.73-.37,10.12,1.74l3.86,6.62.2,1.8c.46-9.46-10-17.41-18.99-14.46-15.41,5.05-25.21,17.67-30.29,32.64-5.66,16.68-2.04,33.53,9.72,46.52,10.66,11.77,26.71,17.83,41.44,22.65,15.59,5.1,31.8,7.99,48.13,9.34,5.79.48,13.64-4.96,14.46-11.01,2.26-16.57-.26-32.48-2.33-48.94-1.95-15.52-1.13-41.31-22.87-41.83-18.54-.44-29.98,21.77-27.22,37.93.67,3.92,2.13,7.41,3.73,11.05,1.97,4.46-.55-2.36.92,2.23l.48,1.46c.43,1.81.5,1.97.21.48l.2-1.06c9.61-4.6,12.02-6.74,7.22-6.42-4.85-.82,2.7,1.09-2.07-.21-1.47-.4-2.97-.72-4.39-1.32,2.05.86-2.69-1.67-3.18-2.01,2.13,1.48-1.66-1.55-1.66-1.55-2.6-2.23.31,1.18-1.59-1.86.28.45-2.24-4.06-1.51-2.49.69,1.49-1.04-3.17-.92-2.76,0-.03-.79-5-.56-2.38-.13-1.59-.15-3.26.02-4.85-.31,2.87.67-2.99.63-2.79.67-3.91,1.13-7.65.2-11.57-2.26-9.51-10.26-16.57-20.27-16.09-9.2.44-16.55,7.68-20.6,15.49-6.69,12.93-6.29,29.65,2.01,41.81,9.95,14.58,30.67,21.18,43.75,6.33,6.14-6.97,8.18-15.82,10.32-24.59.4-1.64.84-3.25,1.32-4.87.63-1.72.75-2.11.36-1.17-.37.82-.21.57.47-.74l-.72,1c-7.6,3.87-12.55,2.97-14.84-2.71-.13-1.34-.17-1.06-.12.84-.08,1.01-.16,2.03-.25,3.04-.39,26.15,33.46,21.42,49.78,15.92,8.69-2.93,14.57-13.5,8.96-22.03-3.47-5.28-7.85-9.79-13.55-12.63-7.25-3.6-16.24-1.94-20.52,5.38s-1.21,15.77,5.38,20.52c16.41,11.82,36.36,13.07,54.29,4,15.07-7.62,27.37-22.99,34.39-38.04-9.32-2.52-18.63-5.05-27.95-7.57.32,10.17,5.71,20.66,16.71,22.13,14.96,2.01,22.73-16.24,12.86-26.71-5.31-5.63-15.96-5.96-21.21,0-8.83,10.01-16.95,16.55-28.27,22.99-2.2,1.26-4.44,2.45-6.72,3.56-.99.49-2,.93-3,1.41-3.09,1.49,1.05-.34.06,0-1.37.47-2.7,1.07-4.09,1.5-.45.14-.99.21-1.42.41-.18.05-.36.09-.54.13,3.66-.94,7.22-.42,10.68,1.54,2.48,4.32,4.95,8.63,7.43,12.95v-.05c-.68,2.52-1.37,5.05-2.05,7.57-.78,1.48-3.16,4.19-4.81,4.83.17-.07.32-.25.49-.34.69-.38,1.34-.85,2.01-1.26,2-1.2,4.04-2.33,6.08-3.46,5.55-3.07,11.16-6.03,16.78-8.98s10.99-5.73,16.5-8.55c1.84-.94,3.67-1.88,5.52-2.81,2.22-1.12,5.23-1.51-.91.2l-11.56-27.42c-4.46,2.85-9.2,5.19-13.6,8.19-8.08,5.51-15.73,11.72-22.66,18.63-5.73,5.72-5.72,15.49,0,21.21s15.46,5.74,21.21,0,11.44-10.54,17.98-14.88c3.95-2.63,8.22-4.71,12.2-7.25,14.04-8.97,5.29-32.09-11.56-27.42-5.81,1.61-11.59,5.53-16.88,8.26-8.59,4.43-17.16,8.9-25.64,13.52-7.6,4.14-17.55,8.3-18.84,17.96-1.62,12.03,9.57,18.86,20.14,16.36,4.86-1.15,9.6-3.5,14.08-5.61,16.04-7.55,30.88-18.7,42.6-31.98h-21.21l.37.39c-1.29-4.86-2.57-9.73-3.86-14.59l-.12.61,6.89-8.96-.5.37c3.85-.5,7.71-1.01,11.56-1.51l-.91-.24,6.62,3.86c.8.78,1.56,2.3,1.6,3.44-.2-6.36-4.49-12.98-11.01-14.46-6.08-1.38-14.08.77-16.94,6.89-5.27,11.3-11.9,20.36-20.83,25.73-2.89,1.73-3.43,2.06-6.6,3.03-.99.31-1.99.56-3,.77,1.12-.09.74-.08-1.15.04-.51,0-4.91-.41-2.51-.01-1.53-.25-2.96-.78-4.45-1.15-1.71-.64-1.85-.66-.43-.04-.81-.36-1.61-.75-2.39-1.16-2.19-1.14-4.26-2.48-6.27-3.92l-15.14,25.9c.39.19,3.3,1.96,2.48,1.36-.9-.66,1.47,2.28.31.51,2.99-7.34,5.98-14.69,8.96-22.03-3.67,1.24-8.68,2.59-11.73,2.93-.5.06-3.7.23-5.04.25-1.18.02-2.35,0-3.53-.04-3.06-.25-2.37,0,2.1.76l5.38,5.38c2.09,3.21.97,5.17,1.2,1.49.09-1.38.07-2.69-.03-4.06-.3-3.99-1.22-7.76-3.25-11.25-4.28-7.33-12.52-11.78-21-10.64-14.73,1.98-19.07,16.54-21.99,28.92-.57,2.41-1.06,4.97-2.04,7.26.69-1.6-.69.99-.79,1.31-.42,1.36.4-.44,1.24-.9.64-.35,1.55-.44,2.23-.57h1.1c1.04.44,1.11.39.19-.12l-.65-.41c1.03.7.95.52-.24-.55.78,2.24-.14-.39-.75-1.28-.38-.55-.99-2.54-.14-.05-.28-.83-.48-1.73-.78-2.55-1.25-3.42-.31,2.35-.24-1.3.02-.89-.01-1.79,0-2.68.05-2.92.11-.63-.05,0,.26-1.09.52-2.15.87-3.22.77-2.39-.61,3.34.37-.66.85-1.26.95-1.49.3-.69-.68.78-.51.59.5-.56l-15.64-5.35-.27-.98c.66-.81-.43,1.51-.55,2.19-.55,3.15-1,6.41-.94,9.62.13,7.03,1.89,13.78,4.86,20.12,5.22,11.13,15.22,19.33,26.66,23.47,13.23,4.79,31.22,3.52,35.89-12.34,1.76-5.96,1.25-12.45-.94-18.23-.73-1.94-1.58-3.87-2.4-5.76-1.23-2.84-.59-1.41-.35-.78-.43-1.12-.63-2.69-1.2-3.72-.26-1.06-.24-1.01.04.17-.31,1.19-.33,1.26-.08.2.22-.43,1.38-3.48.37-1.48.04-.09,2.59-4.03,1.08-1.93,2.41-3.34.26-.15.29-.27-6.7,1.31-11.12-.26-13.25-4.69l.27,1.36c.33-2.18.16,1.43.25,2.09.28,2.2.55,4.41.83,6.61.39,3.15.79,6.29,1.18,9.44,1.56,12.41,4.74,27.49,3.16,39.08l14.46-11.01c-11.34-.93-22.41-3.02-33.87-6.33-11.16-3.23-20.97-6.17-30.21-12.85-2.86-2.07-4.99-4.65-6.75-7.77-1.15-2.04.6,2.79-.58-1.24-.1-.34-.97-4.03-.71-2.39.21,1.33.02-3.15.03-3.26-.1,1.05.33-1.79.29-1.62.33-1.47.74-2.93,1.2-4.37.24-.74,1.11-3.19.33-1.3.94-2.3,2.25-4.47,3.6-6.56.46-.71,1.39-1.63.35-.48.82-.91,1.66-1.76,2.56-2.59,1.14-1.04-1.15.76,1.01-.66,2.45-1.62-1.35.2,1.72-.81-6.33-4.82-12.66-9.64-18.99-14.46-.66,13.48,13.42,21.92,25.48,18.26,8.66-2.63,16.77-11.24,23.11-17.52,13.03-12.93,23.1-31.5,25.56-49.81s-6.02-40.76-26.73-44.11c-10.68-1.73-21.51,1.3-28.21,10.22s-4.96,20.01-1.21,29.9c6.1,16.11,19.08,34.19,38.51,33.13,19.35-1.05,31.06-26.08,29.12-43.12-1.29-11.36-6.62-21.89-18.11-25.76-9.76-3.29-20.58-1.11-29.73,2.93-15.36,6.79-33.21,22.48-35.31,39.84-1.23,10.17,1.78,21.53,6.06,30.71,4.61,9.89,13.01,17.81,23.28,21.56,9.07,3.31,18.87,2.04,27.63-1.55,2.56-1.05,5.09-2.16,7.6-3.33.89-.42,1.78-.85,2.67-1.26.3-.14,3.72-1.65,2.22-1.04-1.38.56.83-.3.9-.32,1.13-.36,2.25-.76,3.4-1.06.68-.17,1.37-.35,2.06-.46-3.08.48,1.22.23,1.64.25l-15-15,.1-1.94,3.86-6.62c.65-.48,1.35-.85,2.1-1.11,1.06-.39.88-.38-.56.04,2.03.45-1.2.06-2.1.13-3.6.29-7.2.43-10.81.49-16.57.25-20.8,25.37-3.99,29.46,7.42,1.81,15.12.82,21.76-3.06,5.62-3.28,9.71-8.16,14.43-12.5,2.46-2.26,1.8-1.78,4.55-3.61,2.15-1.43,4.45-2.61,6.59-4.06,7.29-4.95,12.21-12.03,12.48-21.08.2-6.69-2.01-13.51-3.56-19.97-1.52-6.3-3.03-12.6-4.55-18.9-.11-.45-1.02-4.54-1.08-4.54.19-.01-.43,1.61-.48,1.68-.62.75-1.18,1.54-1.85,2.27l1.2-.67c-1.24.52-1.35.62-.33.3,1.09-.25.89-.27-.58-.05l1.81-.07c1.51.08,3.01.1,4.52.24,3.33.3,6.61.74,9.96.82,15.36.38,19.77-20.29,7.57-27.95-4.55-2.86-9.15-5.65-13.81-8.34-5.4-3.11-11.81-7.84-18.01-8.67-14.69-1.97-25.92,13.93-25.98,27.09l18.99-14.46c-11.55-1.87-23.17-3.14-34.88-3.3-5.67-.07-11.34,0-16.92,1.16-2.75.57-5.54,1.72-8,3.03-.81.43-2.06.98-2.68,1.67-2.13,1.21-.66,1.57,4.42,1.07,6.02,1.61,6.7,1.04,2.05-1.72-10.07-6.98-24.02-4.1-32.06,4.72-4.38,4.8-6.26,10.16-8.93,15.93.66-1.43-2.32,4.33-1.59,2.97.44-.82-1.19.41-.16.26.96-.14,1.98-.61,3.06-.73-7.77.88-15.39,6.27-15,15,.33,7.37,6.65,15.95,15,15h0Z"/>
  </g>
  <g id="dawg_outline">
    <path class="cls-8" d="M62.33,98.16c-7.86,7.03-9.04,17.54-7.24,27.46,1.93,10.64,5.29,21.97,12.11,30.52,1.21,1.51,3.7,3.28,5.77,2.42,1.87-.78,2.23-2.85.96-4.44-5.71-7.15-8.42-16.32-10.28-25.16s-1.95-18.43,5.06-24.69c3.4-3.04-3.44-8.74-6.38-6.11h0Z"/>
    <path class="cls-8" d="M94.08,53.47c9.57-3.46,19.74-5.23,29.92-4.88s20.37,1.67,26.82,9.96c5.54,7.13,9.16,15.92,11.09,24.69.93,4.26.68,8.95,2.05,13.07,1.18,3.52,4,6.25,5.6,9.58,4.28,8.9,3.07,20.44-5.52,26.32-2.79,1.91-6.72,2.24-9.25,4.38-2.65,2.26-2.23,5.81-2.95,8.89-1.87,8.01-9.56,13.65-17.26,15.41-10.09,2.31-20.31-1.44-29.42-5.5-5.52-2.46-4.36,3.27-.41,5.02,14.15,6.3,32.08,11.89,45.97,1.86,5.56-4.02,8.34-9.23,9.48-15.86.92-5.32,4.23-5.05,8.42-7.26,3.45-1.82,6.45-4.55,8.39-7.94,3.93-6.87,3.63-15.18.67-22.34-1.4-3.39-3.69-6.05-5.39-9.24-1.96-3.69-1.59-9.15-2.44-13.26-3.07-14.87-11.27-32.08-25.6-38.98-17.14-8.26-39.49-5.95-56.8.32-2.87,1.04,3.66,6.82,6.61,5.75h0Z"/>
    <path class="cls-8" d="M96.73,66.43c.15-5.94-.32-11.82-4.79-16.2s-11.3-6.02-17.49-6.44-12.31.8-16.99,5.15c-4.43,4.11-6.93,9.72-10,14.82-1.37,2.28-2.85,4.56-4.68,6.5-2.46,2.61-5.71,4.29-8.14,6.92-4.23,4.59-5.58,11.36-3.18,17.14,4.75,11.48,20.03,15.26,31.08,12.19,16.61-4.63,20.81-22.23,23.42-37.12.48-2.74-7.32-6.99-7.88-3.79-2.12,12.1-4.87,26.61-16.71,33.06-5.27,2.87-13.3,4.43-18.93,1.49-6.9-3.61-4.53-13.41-.24-18.05,3.74-4.05,8.24-6.41,11.39-11.14,2.74-4.12,4.78-8.67,7.65-12.72,3.54-5,8.13-8.18,14.39-8.5,3.61-.19,10.1-.09,12.26,3.44,1.5,2.46,1.04,6.68.98,9.46s7.81,6.78,7.88,3.79h0Z"/>
    <path class="cls-8" d="M137.67,46.86c1.56-9.52,13.79-11.37,21.49-8.53,3.63,1.34,5.6,5.54,8.17,8.24,2.41,2.54,5.08,4.81,7.98,6.78,5.81,3.97,15.76,5.43,14.29,14.37-1.64,9.96-13.28,12.42-21.21,8.82-5.47-2.48-4.79,3.58-.68,5.44,9.66,4.38,23.53,4.27,28.68-6.8,4.95-10.63-3.45-18.71-12.33-22.84-6.3-2.93-10.75-6.99-15-12.4-3.31-4.21-7.52-6.93-12.75-8.17-10.08-2.39-24.63-.93-26.67,11.5-.54,3.28,7.4,7.37,8.02,3.59h0Z"/>
    <path class="cls-8" d="M59.29,144.25c-15.06,9.5-24.96,25.56-27.15,43.22-1.08,8.71-.44,18.56,3.45,26.56,4.15,8.55,12.65,14.22,20.35,19.3,17.71,11.69,37.25,23.6,58.56,26.85,11.62,1.77,23.38.98,35.02-.11,3.98-.38,7.16.02,8.08-4.34,1.17-5.53,1.11-11.7,1.27-17.33.71-25.56-3.72-51.07-12.7-74.98-.84-2.23-8.67-5.81-7.5-2.71,7.02,18.69,11.17,38.28,12.22,58.22.51,9.75.29,19.53-.68,29.24-.28,2.8-.21,4.84-3.36,5.87-1.93.63-4.61.45-6.66.62-5.39.47-10.8.83-16.21.83-20.55,0-38.08-7.98-55.33-18.44-7.96-4.82-18.25-9.82-23.84-17.5-5.04-6.92-5.75-17-5.14-25.29,1.32-17.89,11.19-34.89,26.39-44.48,2.3-1.45-4.61-6.88-6.76-5.53h0Z"/>
    <path class="cls-8" d="M147,171.09c7.34,4,15.16,4.27,23.16,2s12.27-7.1,15.99-14.08c3.92-7.37,7.59-14.65,15.01-19.17,5.2-3.16,12.01-2.38,11.2,5.17-.54,5.09-5.3,9.13-10.48,8.16-5.79-1.08-2.36,5.55,1.36,6.24,9.18,1.72,18.71-4.18,17.07-14.52-1.44-9.1-11.93-15.62-20.75-13.2-9.6,2.63-15.72,12.24-19.96,20.49-2.31,4.49-4.76,9.49-9.2,12.24-5.21,3.23-14.95,5.36-20.56,2.3-1.32-.72-4.06-2.02-5.19-.27-1.05,1.61,1.08,3.94,2.36,4.63h0Z"/>
    <path class="cls-8" d="M217.51,146.9c6.88,1.52,5.87,8.91,1.95,12.97-3.42,3.54-8.1,5.17-12.93,5.54-3.69.28-.87,5.07,1.9,4.86,7.98-.61,17.27-4.63,19.48-13.11,1.94-7.45-4.09-13.51-10.92-15.02-3.83-.85-2.38,4.13.52,4.77h0Z"/>
    <path class="cls-8" d="M221.65,160.97c4.71,8.35-3.58,13.82-10.91,14.67-2.98.35-4.86.4-7.06,2.64-2.55,2.59-4.57,5.85-7.02,8.55-4.7,5.2-10.18,11.09-16.46,14.39s-17.76,4.36-23.68-.52c-1.04-.85-3.92-3.46-5.4-2.99s-.7,1.31.46,2.26c6.37,5.25,13.8,8.86,22.17,9.13,9.57.31,16.28-3.79,23.13-10.02,3.63-3.3,7.03-6.84,10.17-10.61,1.53-1.83,2.88-4.33,4.74-5.85,2.19-1.8,4.75-1.47,7.41-1.92,8.36-1.43,14.28-8.29,9.64-16.52-.93-1.64-3.22-3.05-4.93-3.72-.71-.28-3.2-1.18-2.25.5h0Z"/>
    <path class="cls-8" d="M186.91,196.29c-8.61,6.34-19.84,8.67-30.05,4.97-5.58-2.02-5.49,4.27-.98,5.9,12.64,4.57,26.55,3.17,37.48-4.88,3.39-2.5-3.51-8.16-6.45-5.99h0Z"/>
    <path class="cls-8" d="M66.98,185.02c-5.23,8.65-4.41,20.03-3.81,29.76.72,11.7,3.24,23.14,8.28,33.75,1.29,2.71,7.86-3.22,6.76-5.54-4.27-9-6.77-18.6-7.84-28.5-.54-5.03-.73-10.1-.64-15.16s.03-10.76,2.78-15.3c.86-1.42.98-2.73-.76-2.97s-4.05,2.76-4.77,3.95h0Z"/>
  </g>
  <g id="Layer_9" data-name="Layer 9">
    <g>
      <polygon class="cls-12" points="142.47 196.85 124.08 213.55 110.41 209.33 142.47 196.85"/>
      <polygon class="cls-11" points="142.47 196.85 110.41 209.33 110.41 209.32 116.56 197.39 142.47 196.85"/>
      <polygon class="cls-11" points="124.08 213.55 136.26 239.68 110.41 209.33 124.08 213.55"/>
      <polygon class="cls-12" points="110.41 209.33 136.26 239.68 112.72 223.86 110.41 209.33"/>
      <polygon class="cls-12" points="104.38 171.26 116.56 197.39 110.41 209.32 104.38 171.26"/>
      <polygon class="cls-11" points="110.41 209.33 112.72 223.86 94.33 240.55 110.41 209.33"/>
      <polygon class="cls-11" points="110.41 209.32 110.41 209.33 98.17 214.08 74.63 198.26 110.41 209.32"/>
      <polygon class="cls-11" points="104.38 171.26 110.41 209.32 100.54 197.72 104.38 171.26"/>
      <polygon class="cls-12" points="100.54 197.72 110.41 209.32 74.63 198.26 100.54 197.72"/>
      <polygon class="cls-12" points="110.41 209.33 94.33 240.55 98.17 214.08 110.41 209.33"/>
    </g>
  </g>
  <g id="Layer_10" data-name="Layer 10">
    <ellipse class="cls-4" cx="110.13" cy="208.78" rx="12.57" ry="12.86" transform="translate(-31.34 19.82) rotate(-9.01)"/>
    <ellipse class="cls-4" cx="110.04" cy="208.87" rx="17.09" ry="17.81" transform="translate(-31.35 19.81) rotate(-9.01)"/>
    <ellipse class="cls-4" cx="110.03" cy="208.67" rx="14.95" ry="15.21" transform="translate(-31.32 19.81) rotate(-9.01)"/>
    <ellipse class="cls-4" cx="110.12" cy="208.7" rx="19.37" ry="20.22" transform="translate(-31.32 19.82) rotate(-9.01)"/>
    <ellipse class="cls-4" cx="110.01" cy="208.59" rx="9.91" ry="10.43" transform="translate(-31.31 19.8) rotate(-9.01)"/>
  </g>
  <g id="dawg_face">
    <ellipse class="cls-3" cx="112.5" cy="90.86" rx="5.58" ry="9.82" transform="translate(-13.37 19.66) rotate(-9.43)"/>
    <ellipse class="cls-3" cx="150.16" cy="86.15" rx="5.23" ry="8.2" transform="translate(-14.72 33.39) rotate(-12.1)"/>
    <g>
      <path class="cls-8" d="M137.83,103.32c-.64.57-1.67,1.46-2.14,2.71-1.29,3.42,2.21,7.86,2.44,8.14,1.16,1.44,3.71,3.91,6.37,5.33.48.26,1.7.86,2.28,2.25.26.63.29,1.33.31,2.02.09,2.54.16,5.18-.77,7.51-2.03,5.1-7.78,6.58-12.73,7.34-2.92.45-5.95.87-8.75-.15-2.92-1.06-5.21-3.54-7.4-5.94-1.78-1.96-3.72-4.55-2.96-7.21.2-.71.57-1.56.13-2.12-.25-.32-.67-.38-1.05-.37-3.16.04-5.51,3.14-7.4,5.95-.9,1.34-1.18,3.9-.42,4.54.58.49,1.44-.47,2.51-.21,1.85.44,2.59,4.05,2.86,5.15,2.56,10.45,17.42,16.51,21.2,17.49,2.29.59,4.4.4,4.4.4.58-.05,2.14-.24,4.1-1.13,2.78-1.25,5.06-3.3,7.99-6.77,3.62-4.29,4.06-5.81,5.47-7.59.4-.5.79-.96,1.28-1.4,1.65-1.51,3.27-1.64,4.75-2.11,3.62-1.14,5.85-4.08,5.76-4.24-.1-.17-3.23,2.9-7.84,3.44-2.31.27-4.03-.2-4.93-.46-1.39-.4-2.07-.86-2.5-1.19-.56-.44-1.46-1.17-1.87-2.45-.38-1.21-.17-2.43.08-3.84.11-.62.26-1.25.26-1.25.23-.95.42-1.44.74-3.05.42-2.1.41-2.55.84-3.38.58-1.12,1.35-1.73,1.67-2,.47-.39,7.83-6.29,8.29-12.8.12-1.77-.25-2.7-.44-3.11-.45-.94-1.3-1.87-3.28-2.67-3.98-1.61-7.79-.8-12.59.23-.49.11-1.81.4-3.45,1.09-1.16.5-2.15.93-3.21,1.85Z"/>
      <path class="cls-8" d="M136.66,102.46c-1.11.98-2.14,2.02-2.46,3.52-.29,1.37.02,2.77.5,4.05.78,2.07,2.09,3.88,3.62,5.45,1.24,1.28,2.63,2.45,4.11,3.45,1.17.79,2.73,1.24,3.15,2.72.52,1.87.32,4.35.09,6.26-.22,1.79-.85,3.5-1.98,4.92-1.89,2.35-4.87,3.53-7.72,4.24-1.68.41-3.4.68-5.11.9-2.05.26-4.25.45-6.23-.26-1.8-.64-3.23-2.04-4.54-3.38s-2.81-2.85-3.72-4.58c-.43-.83-.74-1.72-.73-2.66s.54-1.76.51-2.67c-.05-1.5-1.97-2.42-3.27-2.5-3.26-.2-5.69,2.77-7.37,5.16-1.42,2.01-2.64,5.39.13,6.87.63.34,1.24.49,1.94.33.2-.05.83-.16.96-.29-.1.11-.31-.57-.19-.17.05.18.26.39.36.57.53,1,.78,2.1,1.05,3.19.64,2.55,1.89,4.84,3.55,6.87,3.44,4.2,8.16,7.26,13,9.6,3.6,1.75,7.73,3.48,11.81,2.93,6.66-.89,11.59-6.88,15.12-12.11,1.33-1.96,2.44-4.29,4.53-5.57,1.48-.9,3.24-1.04,4.81-1.74,1.33-.59,2.54-1.45,3.59-2.46.37-.36,1.24-1.04,1.22-1.63s-.96-1.1-1.39-1.29c-.73-.32-1.09-.23-1.67.18-.88.62-1.77,1.21-2.74,1.69-2.68,1.35-5.69,1.85-8.61,1.01-1.05-.3-1.94-.76-2.49-1.75-.88-1.59-.32-3.77.07-5.43.29-1.23.62-2.43.86-3.67s.39-2.38,1.13-3.43c.8-1.13,2.06-1.96,3.06-2.92,1.81-1.73,3.46-3.67,4.71-5.85s2.28-5.1,1.69-7.73c-.55-2.45-2.78-3.96-4.98-4.87-3.36-1.39-6.88-1.27-10.39-.62s-7.21,1.34-9.97,3.63c-.73.61,1.72,2.25,2.35,1.72,2.51-2.09,5.8-2.8,8.92-3.41s6.77-1.18,9.8.34c2.39,1.2,1.95,4.55,1.25,6.67-.83,2.49-2.38,4.72-4.1,6.67-1.06,1.21-2.22,2.32-3.45,3.36-1.65,1.39-2.19,2.8-2.58,4.85-.51,2.69-1.92,5.85-1.36,8.59.5,2.44,2.84,4.19,5.03,5.06,2.93,1.16,6.15,1.35,9.17.4,1.33-.42,2.6-1.03,3.78-1.78.52-.33,1.16-1.01,1.75-1.18l-1.12-.16h.02c-.46-.42-.93-.85-1.39-1.28,0-.13-.26.33-.38.47-.35.43-.75.83-1.17,1.19-1.22,1.06-2.66,1.87-4.21,2.34s-3.1.81-4.42,1.91c-.91.76-1.65,1.69-2.31,2.68-3.21,4.8-6.69,10.27-12.01,12.96-4.21,2.12-8.23,1.37-12.35-.44-4.43-1.94-8.84-4.59-12.01-8.3-1.65-1.94-2.88-4.13-3.49-6.61-.57-2.31-1.31-4.7-3.57-5.87-.57-.3-1.21-.52-1.87-.51-.29,0-.57.07-.85.14-.1.03-.37.07-.44.14-.38.09-.22.26.5.51.55.58.75.69.6.34.04-.16-.1-.59-.11-.79,0-.36.02-.73.09-1.08.14-.74.43-1.41.84-2.05.95-1.47,2.06-2.98,3.41-4.11.54-.45,1.13-.85,1.77-1.13.41-.18.83-.3,1.27-.36.04,0,.51-.03.52-.04l-1.04-.48-.08.57c-.37,1.67-.56,2.97.15,4.6s1.87,2.97,3.04,4.25c2.42,2.65,5.02,5.3,8.47,6.55s7.11.73,10.62.11c2.8-.49,5.69-1.21,8.1-2.78,2.59-1.69,4.1-4.21,4.53-7.26.27-1.91.3-4.06.04-5.98-.2-1.47-1.05-2.63-2.22-3.51s-2.48-1.46-3.63-2.35-2.33-1.97-3.26-3.15c-1.34-1.69-2.54-3.94-2.5-6.14.03-1.67,1.06-2.94,2.26-4,.72-.64-1.74-2.25-2.35-1.72Z"/>
    </g>
  </g>
  <g id="megaphone">
    <path class="cls-10" d="M182.04,93.45c-4.24,1.45-8.86,3.07-11.57,6.88-3.37,4.75-1.04,9.72.77,14.59,1.65,4.45,2.92,9.37,6.65,12.57,3.48,2.97,8.08,3.93,12.46,4.72s7.47-3.26,5.65-7.34c-3.14-7.04-5.41-14.36-6.94-21.91-.81-3.98-7.42-5.13-9.14-1.19-3.17,7.25-6.15,14.57-8.91,21.98-2.25,6.04,7.41,8.65,9.64,2.66,2.46-6.6,5.08-13.14,7.9-19.59l-9.14-1.19c1.71,8.44,4.44,16.45,7.95,24.3l5.65-7.34c-5.09-.92-8.71-1.39-10.75-6.61-.9-2.3-2.31-4.95-2.74-7.37-.71-3.93,1.93-4.37,5.18-5.49,6.05-2.07,3.45-11.74-2.66-9.64h0Z"/>
    <path class="cls-2" d="M224.69,61.78c-3.21,7.04-7.81,10.8-13.78,15.51-5.54,4.36-12.66,8.51-16.97,14.15-5.82,7.61-4.48,30.55,8.85,28.97,6.91-.82,13.41-4.06,20.36-4.96,5.41-.7,12.68,1.36,15.77-4.55,2.75-5.27-.48-13.6-1.97-18.87-1.97-6.99-4.03-13.75-3.36-21.09h-10c-.25,7.03,1.41,13.69,4.25,20.09s7.53,11.82,10.42,18.13l-.5-3.85-.21.94,2.3-2.99c.45-.19-2.5-1.23-3.21-1.62-1.31-.71-2.63-1.63-3.84-2.5-2.46-1.76-4.94-3.85-6.54-6.45-2.73-4.46-3.26-10.36-10.1-9.65-5.54.57-9.65,6.41-12.57,10.63-3.54,5.13-5.92,11.03-7.23,17.1-.72,3.35,2.34,7.64,6.15,6.15,7.15-2.8,8.99-10.77,13.06-16.59,4.49-6.42,10.54-11.59,15.06-18.03,3.49-4.97-3.79-9.42-7.85-6.06-3.68,3.05-4.47,8.88-4.96,13.35-.23,2.08-1.17,6.47-.13,8.3-.08,1.52.3,1.28,1.14-.71l-1.91.81c-1.59.58-3.25.9-4.91,1.19-4.08.71-4.33,5.75-2.21,8.36,1.46,1.79,3.13,2.71,5.31,3.37,6.17,1.89,8.8-7.76,2.66-9.64l-.89-.8-2.21,8.36c4.49-.79,11.39-2.3,12.83-7.39.73-2.59-.01-5.52.06-8.17s.1-8.15,2.29-9.96l-7.85-6.06c-3.8,5.42-8.76,9.87-12.85,15.06-1.98,2.52-3.66,5.12-5.18,7.93-.89,1.64-2.91,6.56-4.12,7.03l6.15,6.15c.98-4.54,2.51-8.76,4.94-12.72,1.29-2.11,3.23-3.83,4.47-5.9s.33-.33-.09-2.23c.24,1.07.82,2.23,1.29,3.23,3.41,7.13,11.61,13.85,19.07,16.37,3.31,1.12,8.21,1.48,10.61-1.59,2.76-3.53.27-7.29-1.75-10.4-5.8-8.94-11.34-18.25-10.95-29.26.23-6.51-9.43-6.31-10,0-.93,10.29,3,19.72,5.25,29.56.25,1.11.5,2.22.69,3.34l.29,2.04c1.29-.52,1.41-.74.36-.66-2.58.16-5.11-.04-7.7.28-5.17.63-10.15,2.02-15.15,3.44-1.67.48-4.28,1.71-5.34.84-1.47-1.19-1.41-6.11-1.33-7.82.26-5.86,6.1-8.77,10.29-12.07,8.8-6.93,17.61-12.61,22.39-23.07,2.65-5.81-5.96-10.9-8.63-5.05h0Z"/>
    <path class="cls-9" d="M201.79,128.23c8.33-2.08,16.61-4.37,24.81-6.94,3.93-1.23,7.21-2.77,11.07-.52,3.39,1.97,5.59,5.63,7.67,8.81l6.84-6.84c-12.87-5.74-26.37-7.46-40.27-5.1-6.33,1.08-3.65,10.72,2.66,9.64,11-1.87,22.37-.46,32.56,4.09,4.14,1.84,9.87-2.23,6.84-6.84-5.04-7.67-11.77-15.94-22-14.95-5.2.5-10.35,2.83-15.34,4.29-5.8,1.7-11.64,3.26-17.5,4.72-6.24,1.56-3.6,11.2,2.66,9.64h0Z"/>
    <path class="cls-8" d="M183.5,129.36c-9.86-4.08-12.25-15.35-7.1-24.24,2.61-4.51,6.71-6.59,11.07-9.07,5.25-2.99,10.39-6.17,15.36-9.59,8.35-5.75,15.66-12.27,22.21-20.01s11.14-16.76,19.61-22.67c5.24-3.66.25-12.33-5.05-8.63-10.27,7.16-15.68,17.59-23.81,26.75-8.9,10.03-19.6,17.49-31.13,24.24-5.32,3.11-10.7,5.66-14.59,10.61s-6.01,10.72-6.44,16.82c-.83,11.77,6.78,21.14,17.2,25.45,5.94,2.46,8.53-7.22,2.66-9.64h0Z"/>
    <path class="cls-8" d="M170.04,131.71c6.01,7.46,14.59,9.8,23.69,7.37,7.14-1.91,13.6-4.01,21.02-4.5,10.11-.66,19.7.7,29.22,4.1,9.02,3.23,18.67,4.5,28.23,4.53,6.44.02,6.44-9.98,0-10-8.73-.03-17.33-1.23-25.57-4.17-8.81-3.15-17.88-4.75-27.26-4.64-6.03.07-12.21.68-18.1,2.07-4.3,1.02-8.48,2.94-12.86,3.58-4.83.7-8.38-1.78-11.3-5.41-4.04-5.01-11.08,2.1-7.07,7.07h0Z"/>
    <ellipse class="cls-7" cx="261.06" cy="87.66" rx="24.2" ry="55.23" transform="translate(-14.15 77.92) rotate(-16.53)"/>
    <path class="cls-1" d="M261.77,89.65c-1.99-6.7-8.79-10.6-15.2-8.7-1.7.51-3.19,1.38-4.44,2.51.03.06.06.1.09.16,3.44,7.12,5.27,14.82,8.33,22.07,1.07,0,2.16-.15,3.24-.47,6.4-1.9,9.98-8.88,7.99-15.58Z"/>
    <ellipse class="cls-6" cx="261.87" cy="87.76" rx="19.31" ry="49.87" transform="translate(-14.15 78.15) rotate(-16.53)"/>
    <path class="cls-8" d="M190.1,89.11c-3.31,7.48-3.66,15.96-1.36,23.8,2.17,7.39,6.53,13.98,11.98,19.37,2.29,2.27,5.83-1.27,3.54-3.54-9.51-9.41-15.61-24.07-9.84-37.1.55-1.23.36-2.69-.9-3.42-1.06-.62-2.87-.34-3.42.9h0Z"/>
  </g>
</svg>