<svg xmlns="http://www.w3.org/2000/svg" xmlns:xlink="http://www.w3.org/1999/xlink" width="1920" zoomAndPan="magnify" viewBox="0 0 1440 809.999993" height="1080" preserveAspectRatio="xMidYMid meet" version="1.2"><defs><clipPath id="2e7b60f99c"><path d="M 0.398438 0.238281 L 582 0.238281 L 582 480.480469 L 0.398438 480.480469 Z M 0.398438 0.238281 "/></clipPath><clipPath id="e5edd737fb"><rect x="0" width="582" y="0" height="481"/></clipPath><clipPath id="a691f9a8cc"><rect x="0" width="1181" y="0" height="481"/></clipPath></defs><g id="0a521399b4"><g transform="matrix(1,0,0,1,182,144)"><g clip-path="url(#a691f9a8cc)"><g clip-rule="nonzero" clip-path="url(#2e7b60f99c)"><g transform="matrix(1,0,0,1,0,0.000000000000056843)"><g id="225bb178df" clip-path="url(#e5edd737fb)"><g style="fill:#c02620;fill-opacity:1;"><g transform="translate(0.56006, 383.531859)"><path style="stroke:none" d="M 189.25 -220.46875 C 189.25 -211.1875 189.25 -202.140625 189.25 -193.328125 C 189.25 -184.523438 189.25 -177.082031 189.25 -171 C 189.25 -165.226562 188.769531 -157.617188 187.8125 -148.171875 C 186.851562 -138.734375 185.171875 -129.289062 182.765625 -119.84375 C 180.359375 -110.394531 176.753906 -102.628906 171.953125 -96.546875 C 164.585938 -87.253906 158.582031 -80.523438 153.9375 -76.359375 C 149.300781 -72.203125 144.898438 -69.164062 140.734375 -67.25 C 135.296875 -65.007812 129.851562 -63.085938 124.40625 -61.484375 C 118.957031 -59.878906 113.515625 -59.078125 108.078125 -59.078125 C 101.023438 -59.078125 96.378906 -57.71875 94.140625 -55 C 91.898438 -52.28125 90.460938 -47.554688 89.828125 -40.828125 C 89.503906 -36.660156 89.257812 -31.132812 89.09375 -24.25 C 88.9375 -17.363281 89.019531 -11.203125 89.34375 -5.765625 C 89.34375 -1.921875 87.738281 0 84.53125 0 L 17.765625 0 C 14.566406 0 12.96875 -1.921875 12.96875 -5.765625 C 12.96875 -5.765625 13.046875 -9.601562 13.203125 -17.28125 C 13.367188 -24.96875 13.609375 -34.414062 13.921875 -45.625 C 14.242188 -56.832031 14.484375 -67.878906 14.640625 -78.765625 C 14.804688 -89.660156 14.890625 -98.628906 14.890625 -105.671875 C 15.210938 -132.566406 15.128906 -159.539062 14.640625 -186.59375 C 14.160156 -213.65625 13.921875 -240.796875 13.921875 -268.015625 C 13.609375 -278.585938 13.453125 -289.15625 13.453125 -299.71875 C 13.453125 -301.320312 14.410156 -302.125 16.328125 -302.125 L 106.15625 -302.125 C 111.914062 -302.125 119.921875 -301.800781 130.171875 -301.15625 C 140.421875 -300.519531 150.988281 -295.878906 161.875 -287.234375 C 169.238281 -281.796875 174.921875 -274.992188 178.921875 -266.828125 C 182.921875 -258.660156 185.640625 -250.410156 187.078125 -242.078125 C 188.523438 -233.753906 189.25 -226.550781 189.25 -220.46875 Z M 116.71875 -203.171875 C 116.71875 -205.421875 116.554688 -208.304688 116.234375 -211.828125 C 115.921875 -215.347656 114.800781 -218.46875 112.875 -221.1875 C 110.957031 -223.914062 107.753906 -225.28125 103.265625 -225.28125 C 98.785156 -225.28125 95.503906 -223.835938 93.421875 -220.953125 C 91.335938 -218.066406 90.054688 -214.941406 89.578125 -211.578125 C 89.097656 -208.222656 88.859375 -205.582031 88.859375 -203.65625 C 88.535156 -201.09375 88.296875 -196.445312 88.140625 -189.71875 C 87.984375 -183 87.820312 -176.359375 87.65625 -169.796875 C 87.5 -163.234375 87.582031 -158.671875 87.90625 -156.109375 C 87.90625 -153.867188 88.144531 -150.90625 88.625 -147.21875 C 89.101562 -143.539062 90.300781 -140.179688 92.21875 -137.140625 C 94.144531 -134.097656 97.507812 -132.578125 102.3125 -132.578125 C 109.351562 -132.578125 113.429688 -134.976562 114.546875 -139.78125 C 115.671875 -144.582031 116.394531 -148.421875 116.71875 -151.296875 C 116.71875 -154.503906 116.796875 -159.789062 116.953125 -167.15625 C 117.117188 -174.519531 117.203125 -181.722656 117.203125 -188.765625 C 117.203125 -195.816406 117.039062 -200.617188 116.71875 -203.171875 Z M 116.71875 -203.171875 "/></g></g><g style="fill:#c02620;fill-opacity:1;"><g transform="translate(192.211293, 383.531859)"><path style="stroke:none" d="M 148.421875 -9.125 C 140.410156 -5.601562 133.039062 -3.203125 126.3125 -1.921875 C 119.59375 -0.640625 114.632812 0 111.4375 0 L 88.859375 0 C 77.328125 0 65.957031 -2.160156 54.75 -6.484375 C 43.550781 -10.804688 34.585938 -18.09375 27.859375 -28.34375 C 23.054688 -35.707031 19.613281 -44.351562 17.53125 -54.28125 C 15.445312 -64.207031 14.164062 -73.972656 13.6875 -83.578125 C 13.207031 -93.179688 12.96875 -100.867188 12.96875 -106.640625 L 12.96875 -298.765625 C 12.96875 -301.003906 13.769531 -302.125 15.375 -302.125 L 82.140625 -302.125 C 83.734375 -302.125 84.53125 -301.003906 84.53125 -298.765625 C 84.53125 -290.117188 84.53125 -281.3125 84.53125 -272.34375 C 84.53125 -263.375 84.53125 -254.566406 84.53125 -245.921875 C 84.53125 -241.441406 84.53125 -234.796875 84.53125 -225.984375 C 84.53125 -217.179688 84.453125 -207.816406 84.296875 -197.890625 C 84.140625 -187.960938 84.140625 -178.914062 84.296875 -170.75 C 84.453125 -162.59375 84.53125 -156.910156 84.53125 -153.703125 C 85.175781 -146.984375 85.898438 -140.335938 86.703125 -133.765625 C 87.503906 -127.203125 89.1875 -122.640625 91.75 -120.078125 C 94.625 -117.203125 97.582031 -116.242188 100.625 -117.203125 C 103.664062 -118.160156 105.671875 -119.28125 106.640625 -120.5625 C 109.835938 -125.363281 111.4375 -131.125 111.4375 -137.84375 C 111.4375 -144.570312 111.597656 -151.140625 111.921875 -157.546875 C 111.921875 -160.742188 111.921875 -166.742188 111.921875 -175.546875 C 111.921875 -184.359375 111.921875 -194.128906 111.921875 -204.859375 C 111.921875 -215.585938 112 -225.753906 112.15625 -235.359375 C 112.3125 -244.960938 112.390625 -252.328125 112.390625 -257.453125 C 112.710938 -264.492188 112.875 -271.457031 112.875 -278.34375 C 112.875 -285.226562 112.710938 -292.035156 112.390625 -298.765625 C 112.390625 -301.003906 113.03125 -302.125 114.3125 -302.125 L 186.84375 -302.125 C 188.445312 -302.125 189.25 -301.003906 189.25 -298.765625 L 189.25 -116.234375 C 189.25 -107.585938 189.085938 -98.140625 188.765625 -87.890625 C 188.441406 -77.648438 187.320312 -67.644531 185.40625 -57.875 C 183.488281 -48.113281 180.125 -39.867188 175.3125 -33.140625 C 170.507812 -26.097656 166.425781 -20.972656 163.0625 -17.765625 C 159.707031 -14.566406 154.828125 -11.6875 148.421875 -9.125 Z M 148.421875 -9.125 "/></g></g><g style="fill:#c02620;fill-opacity:1;"><g transform="translate(385.303554, 383.531859)"><path style="stroke:none" d="M 189.25 -220.46875 C 189.25 -211.1875 189.25 -202.140625 189.25 -193.328125 C 189.25 -184.523438 189.25 -177.082031 189.25 -171 C 189.25 -165.226562 188.769531 -157.617188 187.8125 -148.171875 C 186.851562 -138.734375 185.171875 -129.289062 182.765625 -119.84375 C 180.359375 -110.394531 176.753906 -102.628906 171.953125 -96.546875 C 164.585938 -87.253906 158.582031 -80.523438 153.9375 -76.359375 C 149.300781 -72.203125 144.898438 -69.164062 140.734375 -67.25 C 135.296875 -65.007812 129.851562 -63.085938 124.40625 -61.484375 C 118.957031 -59.878906 113.515625 -59.078125 108.078125 -59.078125 C 101.023438 -59.078125 96.378906 -57.71875 94.140625 -55 C 91.898438 -52.28125 90.460938 -47.554688 89.828125 -40.828125 C 89.503906 -36.660156 89.257812 -31.132812 89.09375 -24.25 C 88.9375 -17.363281 89.019531 -11.203125 89.34375 -5.765625 C 89.34375 -1.921875 87.738281 0 84.53125 0 L 17.765625 0 C 14.566406 0 12.96875 -1.921875 12.96875 -5.765625 C 12.96875 -5.765625 13.046875 -9.601562 13.203125 -17.28125 C 13.367188 -24.96875 13.609375 -34.414062 13.921875 -45.625 C 14.242188 -56.832031 14.484375 -67.878906 14.640625 -78.765625 C 14.804688 -89.660156 14.890625 -98.628906 14.890625 -105.671875 C 15.210938 -132.566406 15.128906 -159.539062 14.640625 -186.59375 C 14.160156 -213.65625 13.921875 -240.796875 13.921875 -268.015625 C 13.609375 -278.585938 13.453125 -289.15625 13.453125 -299.71875 C 13.453125 -301.320312 14.410156 -302.125 16.328125 -302.125 L 106.15625 -302.125 C 111.914062 -302.125 119.921875 -301.800781 130.171875 -301.15625 C 140.421875 -300.519531 150.988281 -295.878906 161.875 -287.234375 C 169.238281 -281.796875 174.921875 -274.992188 178.921875 -266.828125 C 182.921875 -258.660156 185.640625 -250.410156 187.078125 -242.078125 C 188.523438 -233.753906 189.25 -226.550781 189.25 -220.46875 Z M 116.71875 -203.171875 C 116.71875 -205.421875 116.554688 -208.304688 116.234375 -211.828125 C 115.921875 -215.347656 114.800781 -218.46875 112.875 -221.1875 C 110.957031 -223.914062 107.753906 -225.28125 103.265625 -225.28125 C 98.785156 -225.28125 95.503906 -223.835938 93.421875 -220.953125 C 91.335938 -218.066406 90.054688 -214.941406 89.578125 -211.578125 C 89.097656 -208.222656 88.859375 -205.582031 88.859375 -203.65625 C 88.535156 -201.09375 88.296875 -196.445312 88.140625 -189.71875 C 87.984375 -183 87.820312 -176.359375 87.65625 -169.796875 C 87.5 -163.234375 87.582031 -158.671875 87.90625 -156.109375 C 87.90625 -153.867188 88.144531 -150.90625 88.625 -147.21875 C 89.101562 -143.539062 90.300781 -140.179688 92.21875 -137.140625 C 94.144531 -134.097656 97.507812 -132.578125 102.3125 -132.578125 C 109.351562 -132.578125 113.429688 -134.976562 114.546875 -139.78125 C 115.671875 -144.582031 116.394531 -148.421875 116.71875 -151.296875 C 116.71875 -154.503906 116.796875 -159.789062 116.953125 -167.15625 C 117.117188 -174.519531 117.203125 -181.722656 117.203125 -188.765625 C 117.203125 -195.816406 117.039062 -200.617188 116.71875 -203.171875 Z M 116.71875 -203.171875 "/></g></g></g></g></g><g style="fill:#ffde01;fill-opacity:1;"><g transform="translate(532.348834, 236.155525)"><path style="stroke:none" d="M 80.296875 -50.921875 C 80.296875 -48.734375 80.222656 -45.378906 80.078125 -40.859375 C 79.941406 -36.347656 79.875 -31.660156 79.875 -26.796875 C 79.875 -21.929688 80.082031 -17.789062 80.5 -14.375 L 80.5 -2.046875 C 80.5 -0.679688 79.8125 0 78.4375 0 C 78.4375 0 78.914062 0 79.875 0 C 80.832031 0 81.6875 0 82.4375 0 C 83.195312 0 83.472656 0 83.265625 0 C 83.054688 0 81.820312 0 79.5625 0 C 77.3125 0 73.582031 0 68.375 0 C 59.75 0 52.867188 -0.507812 47.734375 -1.53125 C 42.609375 -2.5625 38.609375 -3.828125 35.734375 -5.328125 C 32.859375 -6.835938 30.460938 -8.140625 28.546875 -9.234375 C 25.671875 -11.015625 22.863281 -13.066406 20.125 -15.390625 C 17.382812 -17.722656 15.191406 -20.191406 13.546875 -22.796875 C 9.992188 -28.546875 7.703125 -33.710938 6.671875 -38.296875 C 5.648438 -42.878906 5.140625 -47.363281 5.140625 -51.75 L 5.140625 -76.59375 C 5.140625 -76.59375 5.140625 -76.210938 5.140625 -75.453125 C 5.140625 -74.703125 5.140625 -73.984375 5.140625 -73.296875 C 5.140625 -72.617188 5.140625 -72.453125 5.140625 -72.796875 C 5.140625 -73.140625 5.140625 -74.472656 5.140625 -76.796875 C 5.140625 -81.316406 5.476562 -85.695312 6.15625 -89.9375 C 6.84375 -94.1875 7.800781 -98.085938 9.03125 -101.640625 C 10.125 -105.066406 11.832031 -108.148438 14.15625 -110.890625 C 16.488281 -113.628906 18.957031 -116.296875 21.5625 -118.890625 C 25.800781 -122.859375 31.476562 -125.5625 38.59375 -127 C 45.71875 -128.4375 53.113281 -129.15625 60.78125 -129.15625 C 66.664062 -129.15625 71.046875 -129.15625 73.921875 -129.15625 C 76.796875 -129.15625 78.609375 -129.15625 79.359375 -129.15625 C 80.117188 -129.15625 80.289062 -129.15625 79.875 -129.15625 C 79.46875 -129.15625 78.921875 -129.15625 78.234375 -129.15625 C 77.546875 -129.15625 77.203125 -129.15625 77.203125 -129.15625 C 77.617188 -129.15625 78.269531 -128.78125 79.15625 -128.03125 C 80.050781 -127.28125 80.5 -126.628906 80.5 -126.078125 L 80.5 -115.609375 C 80.363281 -115.054688 80.257812 -114.503906 80.1875 -113.953125 C 80.113281 -113.410156 80.078125 -112.867188 80.078125 -112.328125 C 79.941406 -111.085938 79.875 -108.722656 79.875 -105.234375 C 79.875 -101.742188 79.941406 -98.015625 80.078125 -94.046875 C 80.222656 -90.078125 80.328125 -86.65625 80.390625 -83.78125 C 80.460938 -80.90625 80.5 -79.46875 80.5 -79.46875 C 80.5 -78.101562 79.878906 -77.421875 78.640625 -77.421875 C 76.722656 -77.554688 74.125 -77.550781 70.84375 -77.40625 C 67.5625 -77.269531 64.378906 -77.097656 61.296875 -76.890625 C 58.210938 -76.691406 56.054688 -76.59375 54.828125 -76.59375 C 51.546875 -76.457031 49.082031 -75.601562 47.4375 -74.03125 C 45.789062 -72.457031 44.691406 -70.742188 44.140625 -68.890625 C 43.597656 -67.046875 43.328125 -65.578125 43.328125 -64.484375 C 43.328125 -62.972656 43.566406 -61.429688 44.046875 -59.859375 C 44.523438 -58.285156 45.242188 -57.019531 46.203125 -56.0625 C 47.847656 -54.550781 49.765625 -53.519531 51.953125 -52.96875 C 54.140625 -52.425781 56.601562 -52.019531 59.34375 -51.75 C 62.082031 -51.46875 64.890625 -51.394531 67.765625 -51.53125 C 70.640625 -51.675781 73.066406 -51.816406 75.046875 -51.953125 C 77.035156 -52.085938 78.164062 -52.15625 78.4375 -52.15625 C 79.394531 -52.15625 80.015625 -51.742188 80.296875 -50.921875 Z M 80.296875 -50.921875 "/></g></g><g style="fill:#ffde01;fill-opacity:1;"><g transform="translate(609.967004, 236.155525)"><path style="stroke:none" d="M 95.078125 0 L 43.734375 0 C 43.191406 0 42.921875 -0.34375 42.921875 -1.03125 C 43.054688 -3.625 43.328125 -7.144531 43.734375 -11.59375 C 44.148438 -16.050781 44.597656 -20.535156 45.078125 -25.046875 C 45.554688 -29.566406 45.929688 -33.0625 46.203125 -35.53125 C 46.335938 -35.800781 46.609375 -36.003906 47.015625 -36.140625 C 47.429688 -36.273438 47.773438 -36.34375 48.046875 -36.34375 C 48.328125 -36.207031 49.148438 -36.140625 50.515625 -36.140625 C 51.878906 -36.140625 53.28125 -36.140625 54.71875 -36.140625 C 56.15625 -36.140625 57.082031 -36.140625 57.5 -36.140625 C 57.5 -36.140625 58.078125 -36.410156 59.234375 -36.953125 C 60.398438 -37.503906 60.984375 -38.46875 60.984375 -39.84375 C 60.847656 -40.519531 60.539062 -42.535156 60.0625 -45.890625 C 59.582031 -49.242188 59.035156 -53.078125 58.421875 -57.390625 C 57.804688 -61.703125 57.257812 -65.84375 56.78125 -69.8125 C 56.300781 -73.78125 55.992188 -76.722656 55.859375 -78.640625 C 55.710938 -81.660156 55.296875 -84.195312 54.609375 -86.25 C 53.929688 -88.300781 52.910156 -89.328125 51.546875 -89.328125 C 49.628906 -89.460938 48.289062 -88.535156 47.53125 -86.546875 C 46.78125 -84.566406 46.335938 -83.03125 46.203125 -81.9375 C 45.796875 -78.925781 45.113281 -74.679688 44.15625 -69.203125 C 43.195312 -63.722656 42.097656 -57.695312 40.859375 -51.125 C 39.628906 -44.5625 38.46875 -37.992188 37.375 -31.421875 C 36.28125 -24.847656 35.351562 -18.859375 34.59375 -13.453125 C 33.84375 -8.046875 33.398438 -3.90625 33.265625 -1.03125 C 33.265625 -0.34375 33.0625 0 32.65625 0 L 4.71875 0 C 4.175781 0 3.972656 -0.410156 4.109375 -1.234375 C 4.242188 -1.773438 4.34375 -2.351562 4.40625 -2.96875 C 4.476562 -3.59375 4.582031 -4.175781 4.71875 -4.71875 C 5 -5.957031 5.546875 -8.59375 6.359375 -12.625 C 7.179688 -16.664062 8.101562 -21.21875 9.125 -26.28125 C 10.15625 -31.34375 11.148438 -36.234375 12.109375 -40.953125 C 13.066406 -45.679688 13.890625 -49.347656 14.578125 -51.953125 C 14.847656 -53.734375 15.359375 -56.742188 16.109375 -60.984375 C 16.867188 -65.234375 17.691406 -70.128906 18.578125 -75.671875 C 19.472656 -81.210938 20.398438 -86.890625 21.359375 -92.703125 C 22.316406 -98.523438 23.171875 -104.035156 23.921875 -109.234375 C 24.671875 -114.441406 25.316406 -118.753906 25.859375 -122.171875 C 26.410156 -125.597656 26.6875 -127.65625 26.6875 -128.34375 C 26.832031 -128.882812 27.109375 -129.15625 27.515625 -129.15625 L 73.109375 -129.15625 C 73.378906 -129.15625 73.582031 -128.882812 73.71875 -128.34375 C 73.988281 -126.96875 74.5 -124.125 75.25 -119.8125 C 76.007812 -115.5 76.832031 -110.671875 77.71875 -105.328125 C 78.613281 -99.992188 79.46875 -94.894531 80.28125 -90.03125 C 81.101562 -85.175781 81.789062 -81.378906 82.34375 -78.640625 C 83.300781 -73.171875 84.191406 -67.695312 85.015625 -62.21875 C 85.835938 -56.738281 86.65625 -51.265625 87.46875 -45.796875 C 87.75 -44.703125 88.128906 -42.613281 88.609375 -39.53125 C 89.085938 -36.445312 89.703125 -32.953125 90.453125 -29.046875 C 91.203125 -25.148438 91.921875 -21.21875 92.609375 -17.25 C 93.296875 -13.28125 93.945312 -9.859375 94.5625 -6.984375 C 95.175781 -4.109375 95.550781 -2.191406 95.6875 -1.234375 C 95.957031 -0.410156 95.753906 0 95.078125 0 Z M 95.078125 0 "/></g></g><g style="fill:#ffde01;fill-opacity:1;"><g transform="translate(700.110912, 236.155525)"><path style="stroke:none" d="M 63.453125 -3.90625 C 60.023438 -2.394531 56.875 -1.363281 54 -0.8125 C 51.125 -0.269531 49.003906 0 47.640625 0 L 37.984375 0 C 33.054688 0 28.195312 -0.921875 23.40625 -2.765625 C 18.613281 -4.617188 14.78125 -7.734375 11.90625 -12.109375 C 9.851562 -15.265625 8.378906 -18.960938 7.484375 -23.203125 C 6.597656 -27.441406 6.050781 -31.613281 5.84375 -35.71875 C 5.644531 -39.832031 5.546875 -43.125 5.546875 -45.59375 L 5.546875 -127.71875 C 5.546875 -128.675781 5.890625 -129.15625 6.578125 -129.15625 L 35.109375 -129.15625 C 35.796875 -129.15625 36.140625 -128.675781 36.140625 -127.71875 C 36.140625 -124.019531 36.140625 -120.253906 36.140625 -116.421875 C 36.140625 -112.597656 36.140625 -108.835938 36.140625 -105.140625 C 36.140625 -103.222656 36.140625 -100.378906 36.140625 -96.609375 C 36.140625 -92.847656 36.101562 -88.84375 36.03125 -84.59375 C 35.96875 -80.351562 35.96875 -76.488281 36.03125 -73 C 36.101562 -69.507812 36.140625 -67.078125 36.140625 -65.703125 C 36.410156 -62.828125 36.71875 -59.988281 37.0625 -57.1875 C 37.40625 -54.382812 38.125 -52.429688 39.21875 -51.328125 C 40.445312 -50.097656 41.710938 -49.6875 43.015625 -50.09375 C 44.316406 -50.507812 45.175781 -50.992188 45.59375 -51.546875 C 46.957031 -53.597656 47.640625 -56.0625 47.640625 -58.9375 C 47.640625 -61.8125 47.707031 -64.617188 47.84375 -67.359375 C 47.84375 -68.722656 47.84375 -71.285156 47.84375 -75.046875 C 47.84375 -78.816406 47.84375 -82.992188 47.84375 -87.578125 C 47.84375 -92.160156 47.875 -96.503906 47.9375 -100.609375 C 48.007812 -104.722656 48.046875 -107.875 48.046875 -110.0625 C 48.179688 -113.070312 48.25 -116.046875 48.25 -118.984375 C 48.25 -121.929688 48.179688 -124.84375 48.046875 -127.71875 C 48.046875 -128.675781 48.320312 -129.15625 48.875 -129.15625 L 79.875 -129.15625 C 80.5625 -129.15625 80.90625 -128.675781 80.90625 -127.71875 L 80.90625 -49.6875 C 80.90625 -46 80.835938 -41.960938 80.703125 -37.578125 C 80.566406 -33.191406 80.085938 -28.910156 79.265625 -24.734375 C 78.441406 -20.566406 77.003906 -17.046875 74.953125 -14.171875 C 72.898438 -11.160156 71.15625 -8.96875 69.71875 -7.59375 C 68.28125 -6.226562 66.191406 -5 63.453125 -3.90625 Z M 63.453125 -3.90625 "/></g></g><g style="fill:#ffde01;fill-opacity:1;"><g transform="translate(777.113072, 236.155525)"><path style="stroke:none" d="M 79.875 -129.15625 C 80.007812 -128.882812 80.148438 -128.679688 80.296875 -128.546875 C 80.429688 -125.804688 80.5 -123.507812 80.5 -121.65625 C 80.5 -119.8125 80.425781 -117.757812 80.28125 -115.5 C 80.144531 -113.25 80.078125 -109.863281 80.078125 -105.34375 C 80.078125 -103.695312 80.179688 -101.300781 80.390625 -98.15625 C 80.597656 -95.007812 80.769531 -92.613281 80.90625 -90.96875 C 81.039062 -89.738281 80.5625 -89.125 79.46875 -89.125 C 73.988281 -89.394531 68.816406 -89.800781 63.953125 -90.34375 C 59.097656 -90.894531 55.234375 -91.171875 52.359375 -91.171875 C 48.390625 -91.035156 44.898438 -90.625 41.890625 -89.9375 C 38.878906 -89.25 37.375 -87.675781 37.375 -85.21875 C 37.375 -82.613281 37.953125 -81.035156 39.109375 -80.484375 C 40.273438 -79.941406 41.269531 -79.601562 42.09375 -79.46875 C 44.96875 -78.78125 47.394531 -78.539062 49.375 -78.75 C 51.363281 -78.957031 54.140625 -78.921875 57.703125 -78.640625 C 61.265625 -78.367188 63.898438 -77.992188 65.609375 -77.515625 C 67.316406 -77.035156 69.539062 -75.289062 72.28125 -72.28125 C 73.789062 -70.632812 75.191406 -68.476562 76.484375 -65.8125 C 77.785156 -63.144531 78.8125 -59.273438 79.5625 -54.203125 C 80.320312 -49.140625 80.703125 -42.226562 80.703125 -33.46875 C 80.703125 -31.550781 80.359375 -28.742188 79.671875 -25.046875 C 78.984375 -21.347656 77.613281 -17.515625 75.5625 -13.546875 C 74.601562 -11.773438 73.03125 -9.828125 70.84375 -7.703125 C 68.65625 -5.578125 66.191406 -3.96875 63.453125 -2.875 C 59.890625 -1.507812 56.296875 -0.789062 52.671875 -0.71875 C 49.046875 -0.644531 46.476562 -0.539062 44.96875 -0.40625 C 44.425781 -0.40625 42.816406 -0.367188 40.140625 -0.296875 C 37.472656 -0.234375 34.289062 -0.203125 30.59375 -0.203125 C 26.894531 -0.203125 23.265625 -0.164062 19.703125 -0.09375 C 16.148438 -0.03125 13.207031 0 10.875 0 C 8.550781 0 7.390625 0 7.390625 0 C 6.429688 0 5.953125 -0.546875 5.953125 -1.640625 C 5.816406 -3.285156 5.78125 -4.925781 5.84375 -6.5625 C 5.914062 -8.207031 6.019531 -9.851562 6.15625 -11.5 C 6.4375 -15.601562 6.503906 -19.742188 6.359375 -23.921875 C 6.222656 -28.097656 6.222656 -32.238281 6.359375 -36.34375 C 6.359375 -37.570312 6.835938 -38.117188 7.796875 -37.984375 C 9.578125 -37.847656 11.835938 -37.78125 14.578125 -37.78125 C 17.316406 -37.78125 18.957031 -37.710938 19.5 -37.578125 C 22.925781 -37.304688 26.828125 -37.269531 31.203125 -37.46875 C 35.585938 -37.675781 39.285156 -38.257812 42.296875 -39.21875 C 44.628906 -39.90625 45.863281 -41.6875 46 -44.5625 C 46.132812 -46.75 45.070312 -48.046875 42.8125 -48.453125 C 40.550781 -48.867188 38.015625 -48.9375 35.203125 -48.65625 C 32.398438 -48.382812 30.25 -48.25 28.75 -48.25 C 25.1875 -47.976562 22.476562 -48.1875 20.625 -48.875 C 18.78125 -49.5625 16.351562 -51.066406 13.34375 -53.390625 C 11.84375 -54.617188 10.507812 -56.429688 9.34375 -58.828125 C 8.175781 -61.222656 7.25 -63.789062 6.5625 -66.53125 C 5.882812 -69.269531 5.546875 -71.734375 5.546875 -73.921875 C 5.410156 -80.898438 5.304688 -87.160156 5.234375 -92.703125 C 5.171875 -98.253906 6.234375 -104.039062 8.421875 -110.0625 C 9.648438 -113.625 11.050781 -116.460938 12.625 -118.578125 C 14.195312 -120.703125 16.351562 -122.585938 19.09375 -124.234375 C 21.28125 -125.597656 24.015625 -126.757812 27.296875 -127.71875 C 30.585938 -128.675781 33.535156 -129.15625 36.140625 -129.15625 Z M 79.875 -129.15625 "/></g></g><g style="fill:#ffde01;fill-opacity:1;"><g transform="translate(853.704554, 236.155525)"><path style="stroke:none" d="M 79.671875 -34.09375 C 79.671875 -32.3125 79.671875 -30.359375 79.671875 -28.234375 C 79.671875 -26.109375 79.671875 -24.296875 79.671875 -22.796875 C 79.671875 -21.703125 79.703125 -20.054688 79.765625 -17.859375 C 79.835938 -15.671875 79.941406 -13.3125 80.078125 -10.78125 C 80.222656 -8.25 80.328125 -6.09375 80.390625 -4.3125 C 80.460938 -2.53125 80.5 -1.640625 80.5 -1.640625 C 80.5 -0.546875 79.953125 0 78.859375 0 L 7.796875 0 C 5.878906 0 4.992188 -0.957031 5.140625 -2.875 C 5.546875 -13.144531 5.78125 -23.445312 5.84375 -33.78125 C 5.914062 -44.113281 6.019531 -54.484375 6.15625 -64.890625 C 6.289062 -75.015625 6.664062 -85.210938 7.28125 -95.484375 C 7.90625 -105.753906 7.460938 -115.953125 5.953125 -126.078125 C 5.816406 -126.898438 6.019531 -127.617188 6.5625 -128.234375 C 7.113281 -128.847656 7.800781 -129.15625 8.625 -129.15625 L 78.03125 -129.15625 C 78.851562 -129.15625 79.398438 -128.742188 79.671875 -127.921875 C 79.671875 -127.785156 79.632812 -127.171875 79.5625 -126.078125 C 79.5 -124.984375 79.398438 -123.890625 79.265625 -122.796875 C 79.265625 -122.109375 79.195312 -120.53125 79.0625 -118.0625 C 78.925781 -115.601562 78.820312 -113.039062 78.75 -110.375 C 78.675781 -107.707031 78.640625 -105.6875 78.640625 -104.3125 C 78.640625 -102.945312 78.707031 -101.269531 78.84375 -99.28125 C 78.988281 -97.300781 79.160156 -95.519531 79.359375 -93.9375 C 79.566406 -92.363281 79.671875 -91.578125 79.671875 -91.578125 C 79.671875 -90.484375 79.054688 -89.9375 77.828125 -89.9375 C 77.828125 -89.9375 76.832031 -89.96875 74.84375 -90.03125 C 72.863281 -90.101562 70.332031 -90.140625 67.25 -90.140625 C 64.164062 -90.140625 60.976562 -90.101562 57.6875 -90.03125 C 54.40625 -89.96875 51.46875 -89.734375 48.875 -89.328125 C 46.820312 -89.046875 44.695312 -88.425781 42.5 -87.46875 C 40.3125 -86.507812 39.148438 -84.800781 39.015625 -82.34375 C 38.878906 -80.832031 39.320312 -79.5625 40.34375 -78.53125 C 41.375 -77.507812 42.570312 -76.726562 43.9375 -76.1875 C 44.625 -75.90625 46.609375 -75.726562 49.890625 -75.65625 C 53.179688 -75.59375 56.878906 -75.5625 60.984375 -75.5625 C 65.085938 -75.5625 68.75 -75.59375 71.96875 -75.65625 C 75.1875 -75.726562 77.140625 -75.765625 77.828125 -75.765625 C 79.054688 -75.765625 79.671875 -75.21875 79.671875 -74.125 L 79.671875 -57.078125 C 79.671875 -55.578125 79.632812 -54.28125 79.5625 -53.1875 C 79.5 -52.09375 79.46875 -50.925781 79.46875 -49.6875 C 79.46875 -48.59375 78.921875 -48.046875 77.828125 -48.046875 C 73.035156 -48.046875 68.789062 -48.21875 65.09375 -48.5625 C 61.394531 -48.90625 58.382812 -49.007812 56.0625 -48.875 C 54.550781 -48.738281 52.800781 -48.671875 50.8125 -48.671875 C 48.832031 -48.671875 46.953125 -48.394531 45.171875 -47.84375 C 43.390625 -47.300781 42.09375 -46.207031 41.28125 -44.5625 C 39.90625 -41.957031 40.109375 -39.800781 41.890625 -38.09375 C 43.671875 -36.382812 45.65625 -35.253906 47.84375 -34.703125 C 49.625 -34.296875 52.191406 -34.160156 55.546875 -34.296875 C 58.898438 -34.429688 62.5625 -34.671875 66.53125 -35.015625 C 70.5 -35.359375 74.265625 -35.597656 77.828125 -35.734375 C 79.054688 -35.734375 79.671875 -35.1875 79.671875 -34.09375 Z M 79.671875 -34.09375 "/></g></g><g style="fill:#ffde01;fill-opacity:1;"><g transform="translate(532.348834, 389.032436)"><path style="stroke:none" d="M 80.296875 -50.921875 C 80.296875 -48.734375 80.222656 -45.378906 80.078125 -40.859375 C 79.941406 -36.347656 79.875 -31.660156 79.875 -26.796875 C 79.875 -21.929688 80.082031 -17.789062 80.5 -14.375 L 80.5 -2.046875 C 80.5 -0.679688 79.8125 0 78.4375 0 C 78.4375 0 78.914062 0 79.875 0 C 80.832031 0 81.6875 0 82.4375 0 C 83.195312 0 83.472656 0 83.265625 0 C 83.054688 0 81.820312 0 79.5625 0 C 77.3125 0 73.582031 0 68.375 0 C 59.75 0 52.867188 -0.507812 47.734375 -1.53125 C 42.609375 -2.5625 38.609375 -3.828125 35.734375 -5.328125 C 32.859375 -6.835938 30.460938 -8.140625 28.546875 -9.234375 C 25.671875 -11.015625 22.863281 -13.066406 20.125 -15.390625 C 17.382812 -17.722656 15.191406 -20.191406 13.546875 -22.796875 C 9.992188 -28.546875 7.703125 -33.710938 6.671875 -38.296875 C 5.648438 -42.878906 5.140625 -47.363281 5.140625 -51.75 L 5.140625 -76.59375 C 5.140625 -76.59375 5.140625 -76.210938 5.140625 -75.453125 C 5.140625 -74.703125 5.140625 -73.984375 5.140625 -73.296875 C 5.140625 -72.617188 5.140625 -72.453125 5.140625 -72.796875 C 5.140625 -73.140625 5.140625 -74.472656 5.140625 -76.796875 C 5.140625 -81.316406 5.476562 -85.695312 6.15625 -89.9375 C 6.84375 -94.1875 7.800781 -98.085938 9.03125 -101.640625 C 10.125 -105.066406 11.832031 -108.148438 14.15625 -110.890625 C 16.488281 -113.628906 18.957031 -116.296875 21.5625 -118.890625 C 25.800781 -122.859375 31.476562 -125.5625 38.59375 -127 C 45.71875 -128.4375 53.113281 -129.15625 60.78125 -129.15625 C 66.664062 -129.15625 71.046875 -129.15625 73.921875 -129.15625 C 76.796875 -129.15625 78.609375 -129.15625 79.359375 -129.15625 C 80.117188 -129.15625 80.289062 -129.15625 79.875 -129.15625 C 79.46875 -129.15625 78.921875 -129.15625 78.234375 -129.15625 C 77.546875 -129.15625 77.203125 -129.15625 77.203125 -129.15625 C 77.617188 -129.15625 78.269531 -128.78125 79.15625 -128.03125 C 80.050781 -127.28125 80.5 -126.628906 80.5 -126.078125 L 80.5 -115.609375 C 80.363281 -115.054688 80.257812 -114.503906 80.1875 -113.953125 C 80.113281 -113.410156 80.078125 -112.867188 80.078125 -112.328125 C 79.941406 -111.085938 79.875 -108.722656 79.875 -105.234375 C 79.875 -101.742188 79.941406 -98.015625 80.078125 -94.046875 C 80.222656 -90.078125 80.328125 -86.65625 80.390625 -83.78125 C 80.460938 -80.90625 80.5 -79.46875 80.5 -79.46875 C 80.5 -78.101562 79.878906 -77.421875 78.640625 -77.421875 C 76.722656 -77.554688 74.125 -77.550781 70.84375 -77.40625 C 67.5625 -77.269531 64.378906 -77.097656 61.296875 -76.890625 C 58.210938 -76.691406 56.054688 -76.59375 54.828125 -76.59375 C 51.546875 -76.457031 49.082031 -75.601562 47.4375 -74.03125 C 45.789062 -72.457031 44.691406 -70.742188 44.140625 -68.890625 C 43.597656 -67.046875 43.328125 -65.578125 43.328125 -64.484375 C 43.328125 -62.972656 43.566406 -61.429688 44.046875 -59.859375 C 44.523438 -58.285156 45.242188 -57.019531 46.203125 -56.0625 C 47.847656 -54.550781 49.765625 -53.519531 51.953125 -52.96875 C 54.140625 -52.425781 56.601562 -52.019531 59.34375 -51.75 C 62.082031 -51.46875 64.890625 -51.394531 67.765625 -51.53125 C 70.640625 -51.675781 73.066406 -51.816406 75.046875 -51.953125 C 77.035156 -52.085938 78.164062 -52.15625 78.4375 -52.15625 C 79.394531 -52.15625 80.015625 -51.742188 80.296875 -50.921875 Z M 80.296875 -50.921875 "/></g></g><g style="fill:#ffde01;fill-opacity:1;"><g transform="translate(609.967004, 389.032436)"><path style="stroke:none" d="M 95.078125 0 L 43.734375 0 C 43.191406 0 42.921875 -0.34375 42.921875 -1.03125 C 43.054688 -3.625 43.328125 -7.144531 43.734375 -11.59375 C 44.148438 -16.050781 44.597656 -20.535156 45.078125 -25.046875 C 45.554688 -29.566406 45.929688 -33.0625 46.203125 -35.53125 C 46.335938 -35.800781 46.609375 -36.003906 47.015625 -36.140625 C 47.429688 -36.273438 47.773438 -36.34375 48.046875 -36.34375 C 48.328125 -36.207031 49.148438 -36.140625 50.515625 -36.140625 C 51.878906 -36.140625 53.28125 -36.140625 54.71875 -36.140625 C 56.15625 -36.140625 57.082031 -36.140625 57.5 -36.140625 C 57.5 -36.140625 58.078125 -36.410156 59.234375 -36.953125 C 60.398438 -37.503906 60.984375 -38.46875 60.984375 -39.84375 C 60.847656 -40.519531 60.539062 -42.535156 60.0625 -45.890625 C 59.582031 -49.242188 59.035156 -53.078125 58.421875 -57.390625 C 57.804688 -61.703125 57.257812 -65.84375 56.78125 -69.8125 C 56.300781 -73.78125 55.992188 -76.722656 55.859375 -78.640625 C 55.710938 -81.660156 55.296875 -84.195312 54.609375 -86.25 C 53.929688 -88.300781 52.910156 -89.328125 51.546875 -89.328125 C 49.628906 -89.460938 48.289062 -88.535156 47.53125 -86.546875 C 46.78125 -84.566406 46.335938 -83.03125 46.203125 -81.9375 C 45.796875 -78.925781 45.113281 -74.679688 44.15625 -69.203125 C 43.195312 -63.722656 42.097656 -57.695312 40.859375 -51.125 C 39.628906 -44.5625 38.46875 -37.992188 37.375 -31.421875 C 36.28125 -24.847656 35.351562 -18.859375 34.59375 -13.453125 C 33.84375 -8.046875 33.398438 -3.90625 33.265625 -1.03125 C 33.265625 -0.34375 33.0625 0 32.65625 0 L 4.71875 0 C 4.175781 0 3.972656 -0.410156 4.109375 -1.234375 C 4.242188 -1.773438 4.34375 -2.351562 4.40625 -2.96875 C 4.476562 -3.59375 4.582031 -4.175781 4.71875 -4.71875 C 5 -5.957031 5.546875 -8.59375 6.359375 -12.625 C 7.179688 -16.664062 8.101562 -21.21875 9.125 -26.28125 C 10.15625 -31.34375 11.148438 -36.234375 12.109375 -40.953125 C 13.066406 -45.679688 13.890625 -49.347656 14.578125 -51.953125 C 14.847656 -53.734375 15.359375 -56.742188 16.109375 -60.984375 C 16.867188 -65.234375 17.691406 -70.128906 18.578125 -75.671875 C 19.472656 -81.210938 20.398438 -86.890625 21.359375 -92.703125 C 22.316406 -98.523438 23.171875 -104.035156 23.921875 -109.234375 C 24.671875 -114.441406 25.316406 -118.753906 25.859375 -122.171875 C 26.410156 -125.597656 26.6875 -127.65625 26.6875 -128.34375 C 26.832031 -128.882812 27.109375 -129.15625 27.515625 -129.15625 L 73.109375 -129.15625 C 73.378906 -129.15625 73.582031 -128.882812 73.71875 -128.34375 C 73.988281 -126.96875 74.5 -124.125 75.25 -119.8125 C 76.007812 -115.5 76.832031 -110.671875 77.71875 -105.328125 C 78.613281 -99.992188 79.46875 -94.894531 80.28125 -90.03125 C 81.101562 -85.175781 81.789062 -81.378906 82.34375 -78.640625 C 83.300781 -73.171875 84.191406 -67.695312 85.015625 -62.21875 C 85.835938 -56.738281 86.65625 -51.265625 87.46875 -45.796875 C 87.75 -44.703125 88.128906 -42.613281 88.609375 -39.53125 C 89.085938 -36.445312 89.703125 -32.953125 90.453125 -29.046875 C 91.203125 -25.148438 91.921875 -21.21875 92.609375 -17.25 C 93.296875 -13.28125 93.945312 -9.859375 94.5625 -6.984375 C 95.175781 -4.109375 95.550781 -2.191406 95.6875 -1.234375 C 95.957031 -0.410156 95.753906 0 95.078125 0 Z M 95.078125 0 "/></g></g><g style="fill:#ffde01;fill-opacity:1;"><g transform="translate(700.110912, 389.032436)"><path style="stroke:none" d="M 79.671875 -128.75 C 79.671875 -123.269531 79.804688 -117.757812 80.078125 -112.21875 C 80.359375 -106.675781 80.359375 -101.164062 80.078125 -95.6875 C 80.078125 -93.082031 80.007812 -90.445312 79.875 -87.78125 C 79.738281 -85.113281 79.671875 -82.410156 79.671875 -79.671875 C 79.671875 -78.441406 79.191406 -77.757812 78.234375 -77.625 C 74.953125 -77.207031 71.90625 -77.132812 69.09375 -77.40625 C 66.289062 -77.6875 64.273438 -77.347656 63.046875 -76.390625 C 62.765625 -76.117188 62.316406 -75.671875 61.703125 -75.046875 C 61.085938 -74.429688 60.710938 -73.507812 60.578125 -72.28125 C 60.304688 -71.1875 60.132812 -68.789062 60.0625 -65.09375 C 59.988281 -61.394531 59.914062 -56.976562 59.84375 -51.84375 C 59.78125 -46.71875 59.75 -41.378906 59.75 -35.828125 C 59.75 -30.285156 59.75 -25.050781 59.75 -20.125 C 59.75 -15.195312 59.78125 -11.085938 59.84375 -7.796875 C 59.914062 -4.515625 59.953125 -2.671875 59.953125 -2.265625 C 59.953125 -0.753906 59.335938 0 58.109375 0 L 26.484375 0 C 25.390625 0 24.773438 -0.679688 24.640625 -2.046875 C 24.640625 -3.828125 24.671875 -6.835938 24.734375 -11.078125 C 24.804688 -15.328125 24.910156 -20.117188 25.046875 -25.453125 C 25.179688 -30.796875 25.316406 -36.101562 25.453125 -41.375 C 25.597656 -46.644531 25.703125 -51.195312 25.765625 -55.03125 C 25.835938 -58.863281 25.804688 -61.328125 25.671875 -62.421875 C 25.390625 -64.472656 25.285156 -66.523438 25.359375 -68.578125 C 25.429688 -70.640625 24.710938 -72.421875 23.203125 -73.921875 C 21.972656 -75.015625 20.640625 -75.800781 19.203125 -76.28125 C 17.765625 -76.757812 16.289062 -77.066406 14.78125 -77.203125 C 13 -77.347656 11.390625 -77.421875 9.953125 -77.421875 C 8.515625 -77.421875 7.796875 -77.421875 7.796875 -77.421875 C 6.566406 -77.421875 5.953125 -78.101562 5.953125 -79.46875 C 5.953125 -79.46875 5.953125 -80.390625 5.953125 -82.234375 C 5.953125 -84.085938 5.914062 -86.140625 5.84375 -88.390625 C 5.78125 -90.648438 5.679688 -92.398438 5.546875 -93.640625 C 5.410156 -95.554688 5.269531 -98.328125 5.125 -101.953125 C 4.988281 -105.578125 4.921875 -109.335938 4.921875 -113.234375 C 4.921875 -117.140625 4.921875 -120.492188 4.921875 -123.296875 C 4.921875 -126.109375 4.921875 -127.648438 4.921875 -127.921875 C 4.921875 -128.742188 5.539062 -129.15625 6.78125 -129.15625 L 79.265625 -129.15625 C 79.265625 -129.15625 79.332031 -129.117188 79.46875 -129.046875 C 79.601562 -128.984375 79.671875 -128.882812 79.671875 -128.75 Z M 79.671875 -128.75 "/></g></g><g style="fill:#ffde01;fill-opacity:1;"><g transform="translate(775.675687, 389.032436)"><path style="stroke:none" d="M 95.078125 0 L 43.734375 0 C 43.191406 0 42.921875 -0.34375 42.921875 -1.03125 C 43.054688 -3.625 43.328125 -7.144531 43.734375 -11.59375 C 44.148438 -16.050781 44.597656 -20.535156 45.078125 -25.046875 C 45.554688 -29.566406 45.929688 -33.0625 46.203125 -35.53125 C 46.335938 -35.800781 46.609375 -36.003906 47.015625 -36.140625 C 47.429688 -36.273438 47.773438 -36.34375 48.046875 -36.34375 C 48.328125 -36.207031 49.148438 -36.140625 50.515625 -36.140625 C 51.878906 -36.140625 53.28125 -36.140625 54.71875 -36.140625 C 56.15625 -36.140625 57.082031 -36.140625 57.5 -36.140625 C 57.5 -36.140625 58.078125 -36.410156 59.234375 -36.953125 C 60.398438 -37.503906 60.984375 -38.46875 60.984375 -39.84375 C 60.847656 -40.519531 60.539062 -42.535156 60.0625 -45.890625 C 59.582031 -49.242188 59.035156 -53.078125 58.421875 -57.390625 C 57.804688 -61.703125 57.257812 -65.84375 56.78125 -69.8125 C 56.300781 -73.78125 55.992188 -76.722656 55.859375 -78.640625 C 55.710938 -81.660156 55.296875 -84.195312 54.609375 -86.25 C 53.929688 -88.300781 52.910156 -89.328125 51.546875 -89.328125 C 49.628906 -89.460938 48.289062 -88.535156 47.53125 -86.546875 C 46.78125 -84.566406 46.335938 -83.03125 46.203125 -81.9375 C 45.796875 -78.925781 45.113281 -74.679688 44.15625 -69.203125 C 43.195312 -63.722656 42.097656 -57.695312 40.859375 -51.125 C 39.628906 -44.5625 38.46875 -37.992188 37.375 -31.421875 C 36.28125 -24.847656 35.351562 -18.859375 34.59375 -13.453125 C 33.84375 -8.046875 33.398438 -3.90625 33.265625 -1.03125 C 33.265625 -0.34375 33.0625 0 32.65625 0 L 4.71875 0 C 4.175781 0 3.972656 -0.410156 4.109375 -1.234375 C 4.242188 -1.773438 4.34375 -2.351562 4.40625 -2.96875 C 4.476562 -3.59375 4.582031 -4.175781 4.71875 -4.71875 C 5 -5.957031 5.546875 -8.59375 6.359375 -12.625 C 7.179688 -16.664062 8.101562 -21.21875 9.125 -26.28125 C 10.15625 -31.34375 11.148438 -36.234375 12.109375 -40.953125 C 13.066406 -45.679688 13.890625 -49.347656 14.578125 -51.953125 C 14.847656 -53.734375 15.359375 -56.742188 16.109375 -60.984375 C 16.867188 -65.234375 17.691406 -70.128906 18.578125 -75.671875 C 19.472656 -81.210938 20.398438 -86.890625 21.359375 -92.703125 C 22.316406 -98.523438 23.171875 -104.035156 23.921875 -109.234375 C 24.671875 -114.441406 25.316406 -118.753906 25.859375 -122.171875 C 26.410156 -125.597656 26.6875 -127.65625 26.6875 -128.34375 C 26.832031 -128.882812 27.109375 -129.15625 27.515625 -129.15625 L 73.109375 -129.15625 C 73.378906 -129.15625 73.582031 -128.882812 73.71875 -128.34375 C 73.988281 -126.96875 74.5 -124.125 75.25 -119.8125 C 76.007812 -115.5 76.832031 -110.671875 77.71875 -105.328125 C 78.613281 -99.992188 79.46875 -94.894531 80.28125 -90.03125 C 81.101562 -85.175781 81.789062 -81.378906 82.34375 -78.640625 C 83.300781 -73.171875 84.191406 -67.695312 85.015625 -62.21875 C 85.835938 -56.738281 86.65625 -51.265625 87.46875 -45.796875 C 87.75 -44.703125 88.128906 -42.613281 88.609375 -39.53125 C 89.085938 -36.445312 89.703125 -32.953125 90.453125 -29.046875 C 91.203125 -25.148438 91.921875 -21.21875 92.609375 -17.25 C 93.296875 -13.28125 93.945312 -9.859375 94.5625 -6.984375 C 95.175781 -4.109375 95.550781 -2.191406 95.6875 -1.234375 C 95.957031 -0.410156 95.753906 0 95.078125 0 Z M 95.078125 0 "/></g></g><g style="fill:#ffde01;fill-opacity:1;"><g transform="translate(865.819612, 389.032436)"><path style="stroke:none" d="M 80.5 -20.734375 C 80.5 -19.773438 80.53125 -18.269531 80.59375 -16.21875 C 80.664062 -14.164062 80.734375 -12.007812 80.796875 -9.75 C 80.867188 -7.488281 80.9375 -5.535156 81 -3.890625 C 81.070312 -2.253906 81.109375 -1.4375 81.109375 -1.4375 C 81.109375 -0.476562 80.765625 0 80.078125 0 L 6.78125 0 C 6.09375 0 5.75 -0.476562 5.75 -1.4375 L 5.75 -4.71875 C 5.75 -4.851562 5.75 -4.921875 5.75 -4.921875 C 5.75 -5.203125 5.75 -5.476562 5.75 -5.75 L 5.75 -69.8125 C 5.75 -75.15625 5.75 -80.492188 5.75 -85.828125 C 5.75 -91.171875 5.882812 -96.507812 6.15625 -101.84375 C 6.15625 -106.632812 6.085938 -111.359375 5.953125 -116.015625 C 5.953125 -118.066406 5.914062 -120.050781 5.84375 -121.96875 C 5.78125 -123.882812 5.816406 -125.867188 5.953125 -127.921875 C 6.085938 -128.742188 6.5 -129.15625 7.1875 -129.15625 L 44.765625 -129.15625 C 45.585938 -129.15625 46 -128.675781 46 -127.71875 C 46 -123.34375 46.097656 -119 46.296875 -114.6875 C 46.503906 -110.375 46.675781 -106.023438 46.8125 -101.640625 C 46.957031 -98.765625 47.0625 -95.921875 47.125 -93.109375 C 47.195312 -90.304688 47.234375 -87.539062 47.234375 -84.8125 C 47.234375 -82.894531 47.195312 -80.117188 47.125 -76.484375 C 47.0625 -72.859375 46.957031 -69.332031 46.8125 -65.90625 C 46.675781 -62.488281 46.609375 -60.234375 46.609375 -59.140625 C 46.742188 -57.359375 46.773438 -55.507812 46.703125 -53.59375 C 46.640625 -51.675781 47.085938 -50.101562 48.046875 -48.875 C 48.460938 -48.1875 50.003906 -47.773438 52.671875 -47.640625 C 55.335938 -47.503906 58.484375 -47.4375 62.109375 -47.4375 C 65.742188 -47.4375 69.203125 -47.503906 72.484375 -47.640625 C 75.773438 -47.773438 78.378906 -47.84375 80.296875 -47.84375 C 80.835938 -47.707031 81.109375 -47.296875 81.109375 -46.609375 C 81.109375 -46.335938 81.070312 -45.3125 81 -43.53125 C 80.9375 -41.75 80.867188 -39.898438 80.796875 -37.984375 C 80.734375 -36.066406 80.703125 -34.628906 80.703125 -33.671875 C 80.566406 -31.484375 80.5 -29.289062 80.5 -27.09375 C 80.5 -24.90625 80.5 -22.785156 80.5 -20.734375 Z M 80.5 -20.734375 "/></g></g><g style="fill:#ffde01;fill-opacity:1;"><g transform="translate(942.205744, 389.032436)"><path style="stroke:none" d="M 49.90625 -129.15625 L 83.78125 -129.15625 C 84.332031 -129.15625 84.46875 -128.742188 84.1875 -127.921875 C 84.050781 -127.378906 83.640625 -125.53125 82.953125 -122.375 C 82.273438 -119.226562 81.457031 -115.328125 80.5 -110.671875 C 79.539062 -106.023438 78.441406 -101.269531 77.203125 -96.40625 C 75.972656 -91.550781 74.8125 -87.207031 73.71875 -83.375 C 71.113281 -74.46875 68.816406 -66.625 66.828125 -59.84375 C 64.847656 -53.070312 63.789062 -49.070312 63.65625 -47.84375 C 63.382812 -45.65625 63.210938 -43.773438 63.140625 -42.203125 C 63.078125 -40.628906 63.046875 -38.742188 63.046875 -36.546875 C 63.046875 -33.953125 62.972656 -31.316406 62.828125 -28.640625 C 62.691406 -25.972656 62.554688 -23.335938 62.421875 -20.734375 C 62.421875 -17.453125 62.382812 -14.132812 62.3125 -10.78125 C 62.25 -7.425781 62.285156 -4.109375 62.421875 -0.828125 C 62.421875 -0.273438 62.285156 0 62.015625 0 L 23.40625 0 C 23 0 22.796875 -0.273438 22.796875 -0.828125 C 22.796875 -1.097656 22.828125 -2.53125 22.890625 -5.125 C 22.960938 -7.726562 23.03125 -10.878906 23.09375 -14.578125 C 23.164062 -18.273438 23.234375 -22.039062 23.296875 -25.875 C 23.367188 -29.707031 23.40625 -33.09375 23.40625 -36.03125 C 23.40625 -38.976562 23.40625 -40.929688 23.40625 -41.890625 C 23.40625 -44.359375 23.300781 -45.96875 23.09375 -46.71875 C 22.894531 -47.46875 22.519531 -48.9375 21.96875 -51.125 C 21.695312 -52.082031 21.082031 -54.785156 20.125 -59.234375 C 19.164062 -63.691406 17.726562 -69.613281 15.8125 -77 C 14.582031 -82.070312 13.316406 -87.34375 12.015625 -92.8125 C 10.710938 -98.289062 9.515625 -103.523438 8.421875 -108.515625 C 7.328125 -113.515625 6.398438 -117.796875 5.640625 -121.359375 C 4.890625 -124.921875 4.378906 -127.179688 4.109375 -128.140625 C 3.972656 -128.816406 4.109375 -129.15625 4.515625 -129.15625 L 38.1875 -129.15625 C 38.46875 -129.15625 38.609375 -128.882812 38.609375 -128.34375 C 38.878906 -123 39.21875 -117.65625 39.625 -112.3125 C 40.039062 -106.976562 40.519531 -101.644531 41.0625 -96.3125 C 41.34375 -94.53125 42.097656 -93.640625 43.328125 -93.640625 C 44.421875 -93.640625 45.175781 -94.53125 45.59375 -96.3125 C 46 -98.226562 46.40625 -100.828125 46.8125 -104.109375 C 47.226562 -107.390625 47.609375 -110.773438 47.953125 -114.265625 C 48.296875 -117.765625 48.601562 -120.847656 48.875 -123.515625 C 49.144531 -126.179688 49.347656 -127.859375 49.484375 -128.546875 C 49.617188 -128.953125 49.757812 -129.15625 49.90625 -129.15625 Z M 49.90625 -129.15625 "/></g></g><g style="fill:#ffde01;fill-opacity:1;"><g transform="translate(1020.850604, 389.032436)"><path style="stroke:none" d="M 79.875 -129.15625 C 80.007812 -128.882812 80.148438 -128.679688 80.296875 -128.546875 C 80.429688 -125.804688 80.5 -123.507812 80.5 -121.65625 C 80.5 -119.8125 80.425781 -117.757812 80.28125 -115.5 C 80.144531 -113.25 80.078125 -109.863281 80.078125 -105.34375 C 80.078125 -103.695312 80.179688 -101.300781 80.390625 -98.15625 C 80.597656 -95.007812 80.769531 -92.613281 80.90625 -90.96875 C 81.039062 -89.738281 80.5625 -89.125 79.46875 -89.125 C 73.988281 -89.394531 68.816406 -89.800781 63.953125 -90.34375 C 59.097656 -90.894531 55.234375 -91.171875 52.359375 -91.171875 C 48.390625 -91.035156 44.898438 -90.625 41.890625 -89.9375 C 38.878906 -89.25 37.375 -87.675781 37.375 -85.21875 C 37.375 -82.613281 37.953125 -81.035156 39.109375 -80.484375 C 40.273438 -79.941406 41.269531 -79.601562 42.09375 -79.46875 C 44.96875 -78.78125 47.394531 -78.539062 49.375 -78.75 C 51.363281 -78.957031 54.140625 -78.921875 57.703125 -78.640625 C 61.265625 -78.367188 63.898438 -77.992188 65.609375 -77.515625 C 67.316406 -77.035156 69.539062 -75.289062 72.28125 -72.28125 C 73.789062 -70.632812 75.191406 -68.476562 76.484375 -65.8125 C 77.785156 -63.144531 78.8125 -59.273438 79.5625 -54.203125 C 80.320312 -49.140625 80.703125 -42.226562 80.703125 -33.46875 C 80.703125 -31.550781 80.359375 -28.742188 79.671875 -25.046875 C 78.984375 -21.347656 77.613281 -17.515625 75.5625 -13.546875 C 74.601562 -11.773438 73.03125 -9.828125 70.84375 -7.703125 C 68.65625 -5.578125 66.191406 -3.96875 63.453125 -2.875 C 59.890625 -1.507812 56.296875 -0.789062 52.671875 -0.71875 C 49.046875 -0.644531 46.476562 -0.539062 44.96875 -0.40625 C 44.425781 -0.40625 42.816406 -0.367188 40.140625 -0.296875 C 37.472656 -0.234375 34.289062 -0.203125 30.59375 -0.203125 C 26.894531 -0.203125 23.265625 -0.164062 19.703125 -0.09375 C 16.148438 -0.03125 13.207031 0 10.875 0 C 8.550781 0 7.390625 0 7.390625 0 C 6.429688 0 5.953125 -0.546875 5.953125 -1.640625 C 5.816406 -3.285156 5.78125 -4.925781 5.84375 -6.5625 C 5.914062 -8.207031 6.019531 -9.851562 6.15625 -11.5 C 6.4375 -15.601562 6.503906 -19.742188 6.359375 -23.921875 C 6.222656 -28.097656 6.222656 -32.238281 6.359375 -36.34375 C 6.359375 -37.570312 6.835938 -38.117188 7.796875 -37.984375 C 9.578125 -37.847656 11.835938 -37.78125 14.578125 -37.78125 C 17.316406 -37.78125 18.957031 -37.710938 19.5 -37.578125 C 22.925781 -37.304688 26.828125 -37.269531 31.203125 -37.46875 C 35.585938 -37.675781 39.285156 -38.257812 42.296875 -39.21875 C 44.628906 -39.90625 45.863281 -41.6875 46 -44.5625 C 46.132812 -46.75 45.070312 -48.046875 42.8125 -48.453125 C 40.550781 -48.867188 38.015625 -48.9375 35.203125 -48.65625 C 32.398438 -48.382812 30.25 -48.25 28.75 -48.25 C 25.1875 -47.976562 22.476562 -48.1875 20.625 -48.875 C 18.78125 -49.5625 16.351562 -51.066406 13.34375 -53.390625 C 11.84375 -54.617188 10.507812 -56.429688 9.34375 -58.828125 C 8.175781 -61.222656 7.25 -63.789062 6.5625 -66.53125 C 5.882812 -69.269531 5.546875 -71.734375 5.546875 -73.921875 C 5.410156 -80.898438 5.304688 -87.160156 5.234375 -92.703125 C 5.171875 -98.253906 6.234375 -104.039062 8.421875 -110.0625 C 9.648438 -113.625 11.050781 -116.460938 12.625 -118.578125 C 14.195312 -120.703125 16.351562 -122.585938 19.09375 -124.234375 C 21.28125 -125.597656 24.015625 -126.757812 27.296875 -127.71875 C 30.585938 -128.675781 33.535156 -129.15625 36.140625 -129.15625 Z M 79.875 -129.15625 "/></g></g><g style="fill:#ffde01;fill-opacity:1;"><g transform="translate(1097.442086, 389.032436)"><path style="stroke:none" d="M 79.671875 -128.75 C 79.671875 -123.269531 79.804688 -117.757812 80.078125 -112.21875 C 80.359375 -106.675781 80.359375 -101.164062 80.078125 -95.6875 C 80.078125 -93.082031 80.007812 -90.445312 79.875 -87.78125 C 79.738281 -85.113281 79.671875 -82.410156 79.671875 -79.671875 C 79.671875 -78.441406 79.191406 -77.757812 78.234375 -77.625 C 74.953125 -77.207031 71.90625 -77.132812 69.09375 -77.40625 C 66.289062 -77.6875 64.273438 -77.347656 63.046875 -76.390625 C 62.765625 -76.117188 62.316406 -75.671875 61.703125 -75.046875 C 61.085938 -74.429688 60.710938 -73.507812 60.578125 -72.28125 C 60.304688 -71.1875 60.132812 -68.789062 60.0625 -65.09375 C 59.988281 -61.394531 59.914062 -56.976562 59.84375 -51.84375 C 59.78125 -46.71875 59.75 -41.378906 59.75 -35.828125 C 59.75 -30.285156 59.75 -25.050781 59.75 -20.125 C 59.75 -15.195312 59.78125 -11.085938 59.84375 -7.796875 C 59.914062 -4.515625 59.953125 -2.671875 59.953125 -2.265625 C 59.953125 -0.753906 59.335938 0 58.109375 0 L 26.484375 0 C 25.390625 0 24.773438 -0.679688 24.640625 -2.046875 C 24.640625 -3.828125 24.671875 -6.835938 24.734375 -11.078125 C 24.804688 -15.328125 24.910156 -20.117188 25.046875 -25.453125 C 25.179688 -30.796875 25.316406 -36.101562 25.453125 -41.375 C 25.597656 -46.644531 25.703125 -51.195312 25.765625 -55.03125 C 25.835938 -58.863281 25.804688 -61.328125 25.671875 -62.421875 C 25.390625 -64.472656 25.285156 -66.523438 25.359375 -68.578125 C 25.429688 -70.640625 24.710938 -72.421875 23.203125 -73.921875 C 21.972656 -75.015625 20.640625 -75.800781 19.203125 -76.28125 C 17.765625 -76.757812 16.289062 -77.066406 14.78125 -77.203125 C 13 -77.347656 11.390625 -77.421875 9.953125 -77.421875 C 8.515625 -77.421875 7.796875 -77.421875 7.796875 -77.421875 C 6.566406 -77.421875 5.953125 -78.101562 5.953125 -79.46875 C 5.953125 -79.46875 5.953125 -80.390625 5.953125 -82.234375 C 5.953125 -84.085938 5.914062 -86.140625 5.84375 -88.390625 C 5.78125 -90.648438 5.679688 -92.398438 5.546875 -93.640625 C 5.410156 -95.554688 5.269531 -98.328125 5.125 -101.953125 C 4.988281 -105.578125 4.921875 -109.335938 4.921875 -113.234375 C 4.921875 -117.140625 4.921875 -120.492188 4.921875 -123.296875 C 4.921875 -126.109375 4.921875 -127.648438 4.921875 -127.921875 C 4.921875 -128.742188 5.539062 -129.15625 6.78125 -129.15625 L 79.265625 -129.15625 C 79.265625 -129.15625 79.332031 -129.117188 79.46875 -129.046875 C 79.601562 -128.984375 79.671875 -128.882812 79.671875 -128.75 Z M 79.671875 -128.75 "/></g></g></g></g></g></svg>